<?xml version="1.0" standalone="no"?>
<!DOCTYPE svg PUBLIC "-//W3C//DTD SVG 20010904//EN"
 "http://www.w3.org/TR/2001/REC-SVG-20010904/DTD/svg10.dtd">
<svg version="1.0" xmlns="http://www.w3.org/2000/svg"
 width="1000.000000pt" height="563.000000pt" viewBox="0 0 1000.000000 563.000000"
 preserveAspectRatio="xMidYMid meet">

<g transform="translate(0.000000,563.000000) scale(0.100000,-0.100000)"
fill="#000000" stroke="none">
<path d="M0 2815 l0 -2815 1354 0 c1066 0 1355 3 1359 13 4 9 6 9 6 0 1 -9 20
-13 62 -13 50 0 60 3 56 15 -4 8 -2 17 4 21 6 3 13 -3 16 -15 11 -41 104 -22
109 23 0 6 2 19 2 29 1 9 9 17 17 17 19 0 19 -19 0 -26 -20 -8 -19 -24 0 -24
13 0 14 -2 3 -14 -7 -8 -16 -12 -20 -9 -5 2 -8 -1 -8 -6 0 -6 18 -11 40 -11
36 0 52 11 33 23 -5 2 -3 2 4 1 16 -4 25 24 10 33 -7 4 -15 8 -19 9 -5 1 -10
2 -13 3 -11 3 14 46 27 46 9 0 22 6 29 12 8 7 27 14 43 17 15 3 33 10 40 15 7
6 16 8 19 4 4 -3 7 -2 7 4 0 15 38 23 43 9 3 -8 8 -8 19 1 8 7 18 10 21 6 4
-3 7 -1 7 6 0 7 5 9 13 4 20 -12 36 -12 31 1 -3 9 8 12 42 10 26 -2 53 -5 60
-8 7 -3 15 2 18 10 3 8 15 14 26 14 11 0 20 5 20 11 0 8 5 8 15 -1 8 -7 15 -8
15 -3 0 10 2 10 58 14 24 2 32 7 32 21 0 10 4 18 10 18 5 0 7 -7 4 -15 -5 -11
1 -15 25 -15 17 0 31 4 31 9 0 5 11 12 25 15 14 4 25 13 25 21 0 7 4 16 9 19
5 4 7 -4 4 -16 -5 -23 -5 -23 11 -3 17 20 17 20 11 -1 -3 -13 1 -26 10 -34 8
-7 15 -18 15 -26 0 -7 4 -15 8 -18 5 -3 9 8 9 25 0 16 -4 25 -7 18 -6 -8 -9
-8 -14 0 -4 6 -3 11 3 11 5 0 9 15 8 33 -2 25 2 31 16 29 10 -2 17 3 17 13 0
8 5 15 10 15 6 0 10 -9 10 -21 0 -11 4 -17 10 -14 5 3 7 0 4 -9 -4 -11 0 -13
15 -9 26 7 26 15 1 38 -28 25 -27 50 1 35 16 -9 24 -8 37 3 23 20 48 11 30
-11 -11 -13 -11 -15 2 -7 8 4 24 15 35 24 20 16 20 16 1 -6 -17 -21 -15 -28 7
-24 5 1 6 -3 2 -9 -4 -7 3 -9 19 -6 38 7 51 17 35 27 -11 7 -10 9 4 9 9 0 17
-5 17 -11 0 -5 3 -8 7 -6 5 3 9 -8 10 -24 1 -17 -2 -27 -7 -24 -6 4 -10 13
-10 21 0 8 -5 14 -11 14 -5 0 -8 -4 -5 -9 3 -4 -6 -7 -19 -5 -14 1 -23 -2 -19
-7 3 -5 9 -7 14 -4 5 3 11 1 15 -5 4 -6 11 -8 16 -5 5 4 9 2 9 -3 0 -6 -11 -9
-25 -8 -14 0 -25 5 -25 9 0 5 -5 5 -12 1 -6 -4 -9 -3 -6 2 3 5 -5 17 -18 27
-21 16 -25 16 -30 3 -3 -9 -10 -16 -16 -16 -5 0 -7 4 -4 9 4 5 3 17 -1 27 -6
15 -8 14 -16 -7 -5 -13 -10 -33 -11 -44 -1 -14 -9 -21 -28 -23 -21 -3 -28 -9
-28 -25 -1 -20 -2 -20 -11 -5 -7 12 -6 24 1 37 7 13 7 22 0 26 -5 3 -16 -6
-22 -21 -10 -22 -10 -28 0 -32 6 -2 12 -8 12 -14 0 -5 9 -21 20 -35 11 -14 20
-23 20 -19 0 4 7 0 16 -8 22 -22 32 -12 28 25 -3 27 -2 30 11 19 12 -10 15
-10 15 1 0 8 5 6 14 -6 7 -10 20 -19 29 -21 9 -1 30 -12 47 -24 28 -20 30 -20
31 -3 0 16 1 16 9 -2 5 -11 9 -16 9 -11 1 6 8 1 16 -10 15 -19 15 -19 8 0 -5
16 -3 18 13 13 17 -6 17 -5 -2 8 -27 20 -21 65 14 97 l25 23 -23 -32 c-26 -36
-21 -63 10 -63 14 0 19 -4 14 -12 -4 -7 -3 -8 5 -4 7 4 15 -2 20 -16 10 -22
10 -22 8 5 -1 15 -4 27 -8 27 -4 0 -14 12 -23 28 l-17 27 20 -23 c21 -24 41
-22 41 4 0 8 4 14 10 14 6 0 6 -9 0 -25 -6 -15 -6 -25 0 -25 5 0 10 10 12 22
2 11 11 22 21 24 19 3 21 -1 8 -24 -7 -13 -2 -24 20 -46 27 -28 28 -28 24 -6
-3 13 -9 26 -15 30 -6 4 -8 17 -6 31 3 13 5 27 5 31 1 4 13 3 27 -3 22 -8 25
-7 16 3 -6 8 -9 30 -8 51 2 21 -1 40 -7 44 -6 3 -7 1 -3 -5 4 -7 2 -12 -3 -12
-6 0 -11 5 -11 11 0 6 -9 8 -20 4 -28 -9 -37 20 -15 45 17 19 17 20 -3 20 -12
0 -25 0 -28 -1 -4 0 -11 5 -15 13 -5 7 -9 9 -9 3 0 -5 5 -17 10 -25 8 -13 10
-13 10 0 0 11 3 11 12 2 9 -9 10 -15 2 -20 -15 -10 -9 -44 10 -54 20 -11 21
-25 1 -25 -8 0 -15 4 -15 9 0 5 -5 6 -11 3 -6 -4 -9 -1 -7 6 1 8 -2 14 -7 14
-6 0 -9 -6 -9 -12 1 -7 -6 -13 -16 -13 -10 0 -21 -6 -23 -12 -3 -7 -6 -3 -6
10 -1 14 -7 22 -18 22 -15 0 -16 2 -3 10 12 7 12 12 2 22 -14 14 -16 32 -3 24
5 -3 12 1 15 10 9 22 8 26 -5 18 -8 -5 -8 -1 0 14 8 15 8 21 -1 24 -6 2 -8 10
-4 16 11 18 26 14 19 -5 -4 -10 -2 -14 4 -10 15 9 10 -31 -7 -62 -11 -21 -10
-23 4 -18 13 5 15 2 10 -20 l-7 -26 26 19 c30 22 32 32 13 60 -21 30 -25 78
-6 80 8 0 18 2 23 4 12 5 26 7 43 9 8 0 13 5 9 10 -3 6 9 8 27 6 19 -3 35 1
40 8 6 9 8 8 8 -3 0 -12 2 -12 8 -2 7 10 15 10 38 2 20 -8 30 -8 32 -1 2 6 8
9 13 5 5 -3 9 0 9 6 0 7 7 10 15 6 12 -4 14 0 10 17 -3 12 -1 29 5 37 9 13 11
13 20 0 8 -13 10 -13 10 1 0 12 8 16 30 14 17 -1 30 2 30 7 0 5 6 8 13 5 6 -2
26 4 42 13 17 9 42 15 58 13 30 -4 32 -1 17 27 -11 21 -9 22 115 41 44 6 92
18 107 26 26 13 28 12 34 -14 3 -16 9 -40 14 -54 4 -15 3 -33 -3 -45 -9 -17
-9 -18 6 -5 24 19 21 6 -4 -17 -20 -19 -19 -20 83 -26 180 -12 389 -10 438 4
25 8 48 13 52 12 13 -3 25 31 37 103 7 39 17 83 21 98 l9 28 -44 -7 c-30 -4
-45 -3 -45 5 0 6 -7 11 -15 11 -19 0 -14 -41 18 -137 18 -55 21 -75 12 -83 -8
-7 -21 25 -49 123 -21 72 -58 194 -83 269 -39 121 -48 141 -78 164 -35 27 -39
52 -6 34 46 -24 66 -62 111 -207 40 -126 49 -148 66 -146 10 0 43 4 72 8 33 5
52 4 52 -2 0 -10 57 -3 90 11 13 5 16 -3 15 -51 0 -83 6 -93 58 -93 32 0 51 6
69 24 14 12 33 26 41 29 53 20 66 175 14 162 -40 -10 -57 -19 -57 -30 0 -7 -7
-15 -15 -19 -12 -4 -13 -11 -5 -32 6 -15 8 -29 6 -32 -3 -3 -8 3 -12 12 -3 9
-12 16 -20 16 -11 0 -13 9 -8 40 6 36 5 39 -15 35 -12 -2 -21 1 -21 8 0 7 -4
6 -10 -3 -7 -12 -11 -8 -16 17 -4 18 -10 31 -14 28 -4 -3 -11 2 -14 11 -3 8
-10 13 -14 10 -12 -7 -53 24 -46 35 3 5 2 8 -3 7 -16 -5 -55 30 -48 43 5 7 4
10 -3 5 -6 -3 -32 20 -59 53 -26 32 -60 66 -75 75 -16 10 -28 26 -28 37 0 12
-4 17 -11 14 -6 -4 -13 2 -16 14 -3 12 -13 21 -22 21 -14 0 -14 2 -1 11 12 8
11 9 -7 7 -12 -2 -22 1 -22 6 1 5 -5 12 -12 17 -10 6 -10 10 0 23 10 12 9 20
-4 40 -10 14 -22 26 -28 26 -6 0 -7 3 -4 6 4 4 13 1 21 -5 12 -10 17 -8 25 8
6 11 11 31 11 45 0 24 2 25 28 15 15 -6 55 -11 89 -11 41 -1 64 -6 67 -15 4
-9 22 -11 71 -8 36 3 65 1 65 -3 0 -5 23 -7 51 -5 31 2 48 -1 44 -7 -3 -5 8
-9 27 -9 18 1 44 -3 58 -9 19 -7 28 -6 37 7 8 10 12 12 13 4 0 -18 90 -18 90
0 0 8 7 14 15 14 10 0 12 -4 5 -12 -13 -16 11 -27 30 -15 7 5 24 4 37 -1 32
-12 33 -12 33 6 0 9 -6 12 -17 9 -15 -5 -15 -4 -3 4 9 7 19 7 26 2 6 -6 14 -7
18 -3 4 4 4 0 0 -10 -3 -10 -1 -17 5 -17 6 0 11 7 11 15 0 8 9 15 20 15 11 0
20 -6 20 -14 0 -10 9 -14 27 -13 31 3 54 50 34 70 -15 15 -391 20 -391 6 0 -5
12 -9 28 -9 l27 0 -29 -15 c-35 -18 -50 -19 -40 -2 5 7 2 7 -10 -2 -9 -8 -16
-10 -15 -5 3 20 -2 32 -16 37 -11 5 -12 1 -5 -17 12 -31 3 -38 -29 -23 -14 7
-39 12 -54 11 -15 0 -30 3 -33 7 -3 5 0 9 7 9 7 0 9 3 6 6 -13 13 -110 16
-117 4 -5 -8 -16 -3 -35 14 -32 30 -43 32 -51 11 -5 -12 -9 -13 -20 -4 -8 7
-17 9 -21 5 -3 -3 -18 1 -32 11 -22 14 -24 14 -13 1 7 -9 9 -19 5 -21 -13 -8
-37 9 -29 21 4 6 -2 8 -15 5 -21 -6 -21 -4 -15 40 6 41 4 48 -24 81 -23 26
-42 37 -75 41 -80 13 -155 -32 -155 -93 0 -14 -5 -41 -12 -59 -10 -29 -10 -36
2 -43 11 -7 8 -10 -13 -10 -19 0 -26 -4 -21 -12 5 -8 2 -9 -10 -5 -42 16 -66
18 -105 7 -47 -12 -71 -43 -92 -118 -13 -45 -14 -46 -19 -17 -4 24 -23 42
-105 97 -123 82 -125 84 -125 111 0 12 -9 28 -20 35 -19 12 -20 10 -20 -52 0
-47 4 -67 17 -77 25 -22 43 -74 43 -127 0 -37 9 -67 40 -126 22 -42 40 -84 40
-92 0 -9 5 -12 12 -8 6 4 8 3 5 -3 -4 -6 -2 -25 4 -43 10 -26 16 -31 35 -27
13 2 21 0 18 -4 -3 -5 -11 -9 -19 -9 -7 0 -17 -10 -20 -21 -6 -18 -13 -21 -46
-16 -22 3 -37 1 -33 -4 3 -5 0 -9 -5 -9 -6 0 -11 -7 -11 -15 0 -8 7 -15 15
-15 8 0 15 -8 15 -17 0 -15 -2 -16 -10 -3 -9 13 -11 13 -20 0 -5 -8 -10 -20
-10 -26 0 -7 -10 -18 -23 -27 -23 -15 -48 -22 -257 -76 -58 -15 -111 -31 -119
-35 -7 -5 -38 -9 -67 -9 -30 0 -54 -4 -54 -8 0 -5 8 -6 18 -3 14 5 15 4 2 -5
-24 -17 -43 -13 -36 7 5 13 2 13 -12 -4 -15 -18 -19 -19 -31 -6 -10 10 -16 11
-21 3 -3 -7 -23 -13 -42 -15 -19 -2 -45 -10 -57 -18 -42 -29 -58 -14 -60 58
-4 135 -63 252 -135 270 -38 9 -87 -16 -126 -65 -18 -22 -37 -38 -43 -34 -6 3
-7 1 -4 -4 9 -14 -13 -74 -24 -67 -5 3 -6 -3 -2 -12 5 -13 3 -15 -7 -9 -10 6
-12 4 -7 -8 3 -9 2 -27 -3 -39 -5 -14 -9 -17 -10 -8 0 13 -1 13 -10 0 -13 -20
-13 -33 0 -25 5 3 10 2 10 -4 0 -5 -5 -13 -10 -16 -6 -4 -8 -10 -5 -15 3 -5
-1 -25 -9 -44 -8 -19 -11 -38 -8 -42 4 -4 2 -4 -4 -1 -7 4 -19 -4 -28 -18 -9
-14 -23 -25 -30 -25 -8 0 -17 -6 -19 -12 -3 -8 -6 -5 -6 5 -1 10 -6 15 -11 12
-6 -3 -10 3 -10 15 0 20 -3 21 -57 15 -61 -7 -215 -47 -258 -67 -14 -6 -25
-18 -25 -27 0 -14 -1 -14 -10 -1 -16 25 8 37 142 74 133 36 181 55 143 56 -17
0 -17 2 -5 10 13 9 13 11 0 20 -11 7 0 10 38 10 47 0 52 -2 52 -22 0 -12 3
-18 6 -15 4 4 1 27 -6 52 -11 40 -15 44 -29 32 -16 -13 -46 -23 -143 -48 -27
-6 -70 -9 -97 -7 -39 4 -50 1 -60 -14 -8 -13 -22 -18 -54 -17 -36 1 -39 2 -17
9 16 6 5 6 -30 3 -30 -4 -70 -7 -87 -7 -22 0 -29 -3 -20 -9 7 -5 2 -6 -15 -3
-20 5 -28 2 -28 -8 0 -17 -55 -26 -94 -15 -15 5 -49 4 -75 -1 -85 -16 -121
-19 -121 -9 0 5 13 12 29 15 17 4 32 12 35 20 3 8 10 14 16 14 6 0 20 9 32 20
12 11 27 20 32 20 6 0 4 -5 -4 -10 -12 -8 -9 -10 12 -10 15 0 29 4 32 8 3 5
21 9 40 10 18 1 60 13 91 27 32 14 70 25 86 25 32 0 39 16 12 23 -11 3 -6 5
11 6 16 0 38 -7 48 -16 18 -16 18 -16 12 3 -7 18 -7 18 13 1 15 -13 26 -15 49
-8 16 5 82 22 147 37 92 21 117 31 112 42 -4 10 0 12 10 8 9 -3 13 -2 10 4 -3
6 -2 10 2 10 5 0 9 9 9 20 l0 21 -16 -20 c-10 -15 -43 -27 -110 -42 -52 -11
-105 -22 -118 -24 -12 -1 -25 -5 -29 -9 -3 -3 -12 -1 -20 5 -7 6 -13 8 -13 5
0 -4 -6 -1 -14 7 -12 12 -15 62 -17 263 -1 137 -5 524 -8 859 l-7 610 -4 -545
c-2 -300 -4 -699 -5 -888 0 -188 -3 -342 -7 -342 -5 0 -8 4 -8 9 0 5 -9 7 -20
4 -11 -3 -20 -1 -20 5 0 5 9 12 20 15 11 3 20 12 20 21 0 10 -6 13 -16 9 -10
-4 -20 0 -26 10 -12 22 -34 22 -47 0 -9 -17 -10 -17 -17 2 -10 26 -45 76 -64
92 -13 11 -13 12 3 7 20 -7 23 13 4 36 -11 15 -85 43 -116 44 -18 1 -25 44
-10 62 9 11 6 14 -16 14 -28 0 -29 11 -9 64 3 9 1 16 -5 16 -6 0 -11 17 -11
40 0 32 -4 40 -19 40 -14 0 -17 6 -14 24 3 13 -2 37 -10 53 -14 26 -31 200
-29 291 0 17 -4 32 -9 32 -5 0 -10 30 -11 68 -2 65 -2 65 -5 12 -2 -30 -6 -66
-10 -80 l-6 -25 -7 30 c-11 44 -11 163 -1 146 16 -24 24 27 22 138 -1 57 -4
108 -7 113 -3 4 -8 45 -11 91 -2 45 -9 84 -14 86 -6 2 -8 32 -5 75 4 45 2 62
-3 46 -10 -30 -15 53 -29 475 -16 464 -16 468 -4 492 7 12 24 23 39 25 23 3
19 6 -19 12 -45 8 -47 10 -41 34 4 19 3 23 -7 17 -8 -5 -11 -4 -6 3 5 9 11
113 7 150 0 6 -6 12 -12 12 -6 0 -8 -7 -5 -15 8 -21 -42 -45 -54 -26 -6 11 -9
11 -13 0 -3 -8 -6 -2 -6 12 l-1 25 -67 -8 c-42 -5 -71 -4 -79 3 -6 5 -27 9
-45 9 -19 -1 -61 3 -94 8 -43 7 -62 6 -67 -2 -5 -7 -8 -6 -9 4 -1 8 -3 20 -3
25 -3 20 -18 37 -25 27 -4 -7 -26 -6 -66 3 -33 7 -49 13 -35 14 19 1 22 3 10
11 -12 8 -12 10 3 16 25 9 21 24 -8 24 -26 0 -35 25 -13 33 26 9 -5 21 -56 21
-61 1 -53 15 9 17 36 1 37 2 15 10 -19 6 -11 8 28 5 30 -2 48 0 41 4 -6 5 28
11 77 15 130 10 189 20 187 31 -1 6 14 8 34 6 25 -3 34 -1 29 7 -4 6 -16 11
-27 11 -10 0 -19 4 -19 10 0 6 44 9 113 8 128 -2 277 10 277 22 0 11 47 21
109 22 28 1 51 5 51 9 0 4 12 10 27 14 21 5 24 8 12 16 -12 7 -11 9 4 9 9 0
17 -4 17 -9 0 -10 91 -2 106 10 6 5 9 19 7 32 -4 20 -1 23 24 21 15 -1 38 3
50 7 34 13 54 1 47 -27 -5 -18 -2 -24 11 -24 9 0 13 -4 10 -10 -9 -14 9 -12
55 6 22 9 51 13 64 10 18 -4 32 1 51 19 l27 24 -24 6 c-12 3 -36 7 -53 8 -16
1 -34 6 -40 10 -5 4 -30 18 -55 30 -24 12 -45 27 -47 32 -5 16 76 43 147 51
36 4 71 11 78 17 7 6 57 13 110 16 88 5 101 9 145 39 43 28 53 31 82 23 19 -5
36 -7 38 -5 25 25 249 46 262 24 3 -5 15 -10 25 -10 10 0 20 -3 23 -7 2 -5 2
-2 1 4 -2 9 16 12 65 11 38 0 90 6 117 15 93 30 129 37 132 27 5 -13 32 -13
32 -1 0 5 -6 11 -12 14 -15 6 40 29 56 24 6 -2 17 3 25 11 10 9 25 12 49 7 29
-5 32 -4 21 8 -8 8 -20 12 -26 10 -7 -3 -13 0 -13 6 0 6 8 11 18 11 21 0 60
26 51 34 -3 3 -32 11 -65 17 -32 6 -63 15 -69 20 -5 5 -17 9 -27 9 -18 0 -42
33 -31 44 4 3 -2 13 -13 21 -17 13 -17 14 -1 15 9 0 17 4 17 9 0 12 -41 1 -57
-15 -7 -7 -13 -17 -13 -22 0 -5 -17 -12 -37 -16 -21 -3 -45 -10 -53 -16 -13
-9 -13 -11 0 -19 24 -16 3 -25 -68 -27 -37 -1 -89 -5 -117 -9 -37 -5 -46 -4
-35 4 12 8 7 11 -23 11 -20 0 -45 -4 -55 -9 -25 -13 -113 -32 -142 -30 -14 1
-59 -2 -101 -6 -50 -5 -82 -4 -96 4 -25 13 -40 68 -24 84 24 24 88 35 209 36
140 2 199 13 252 47 19 12 56 30 83 39 48 18 62 35 28 35 -32 0 -34 18 -5 47
21 21 24 30 16 43 -8 14 -6 20 11 28 98 49 234 66 300 38 20 -9 37 -21 37 -27
0 -13 -40 -48 -55 -49 -5 0 -3 5 5 11 12 9 12 10 -3 5 -10 -3 -23 -6 -28 -6
-5 0 -9 -4 -9 -10 0 -5 7 -10 15 -10 9 0 15 -9 15 -25 0 -14 0 -28 1 -32 0 -5
-10 -11 -23 -15 -17 -4 -18 -6 -5 -7 10 -1 26 3 36 8 22 12 61 3 55 -13 -2 -6
13 -16 36 -24 53 -16 63 -15 83 8 9 11 27 20 39 21 13 0 52 2 88 2 51 2 72 7
98 26 24 16 43 22 67 19 27 -3 32 -1 23 9 -20 24 0 39 76 57 48 11 76 23 76
31 0 18 -11 24 -54 29 -20 3 -52 13 -72 22 -35 17 -36 18 -14 26 13 5 60 9
104 10 85 1 141 13 167 35 10 8 34 13 57 12 26 -2 45 3 57 14 9 9 22 18 28 18
7 1 30 3 52 5 57 5 87 13 80 24 -3 5 -18 5 -34 0 -28 -8 -86 0 -110 14 -7 5
-10 2 -9 -6 2 -8 -6 -12 -22 -11 -14 2 -60 4 -103 5 l-78 2 77 28 c42 16 90
38 107 50 26 19 43 22 133 21 57 0 114 -4 126 -10 13 -6 31 -14 41 -17 13 -4
16 -12 12 -25 -4 -12 0 -21 11 -25 14 -5 15 -4 4 9 -15 18 -7 19 21 4 11 -5
17 -14 14 -20 -4 -5 1 -9 9 -9 9 0 16 6 16 14 0 15 35 32 57 28 6 -2 14 2 18
8 10 16 35 12 35 -7 0 -15 1 -16 13 0 20 26 166 88 192 81 22 -5 71 17 87 41
5 6 11 6 19 -2 9 -9 18 -9 32 -2 10 6 28 8 40 5 12 -3 27 0 34 6 7 6 45 13 83
16 39 2 73 9 76 13 3 5 0 9 -5 9 -6 0 -11 7 -11 15 0 9 -9 15 -22 15 -19 0
-20 -2 -8 -11 12 -9 12 -10 1 -7 -8 3 -17 10 -19 17 -3 9 21 11 104 9 91 -2
109 -6 112 -19 2 -11 -10 -22 -38 -33 -22 -9 -40 -21 -40 -27 0 -5 -12 -9 -27
-8 -59 4 -64 1 -38 -26 31 -30 32 -45 3 -38 -19 4 -20 3 -8 -6 20 -14 42 -14
90 1 27 9 40 19 40 31 0 23 40 38 115 42 33 1 64 3 68 4 4 0 0 12 -10 25 -21
28 -63 43 -73 26 -5 -7 -16 -9 -30 -5 -17 5 -20 12 -15 28 4 12 8 33 9 47 0
14 7 29 14 33 6 4 12 14 12 21 0 14 41 36 68 36 10 0 23 5 29 11 6 6 28 12 49
13 22 1 46 5 54 9 8 3 26 7 40 9 16 2 24 9 22 18 -1 10 2 9 13 -4 8 -10 12
-23 9 -27 -3 -5 -1 -9 5 -9 5 0 11 6 14 13 2 6 8 9 12 5 11 -11 -14 -38 -35
-38 -12 0 -17 -8 -17 -25 0 -23 3 -25 51 -27 28 0 58 0 66 1 68 12 102 12 95
1 -4 -7 3 -5 16 3 13 9 43 19 67 23 23 4 45 11 48 15 3 5 13 9 23 9 13 0 19 7
19 24 0 16 -5 23 -13 20 -16 -7 -31 16 -17 25 6 4 -3 13 -21 21 l-32 14 25 8
c21 6 20 7 -9 5 -22 -1 -36 3 -39 12 -3 10 0 12 12 8 9 -4 16 -2 16 3 0 17 59
11 102 -11 30 -15 43 -18 48 -9 4 6 10 11 14 11 3 -1 10 -1 14 -1 11 0 52 35
52 44 0 3 -1638 6 -3640 6 l-3640 0 0 -2815z m4156 2760 c4 -8 13 -15 21 -15
12 0 12 -2 -1 -16 -18 -17 -107 -16 -113 1 -4 13 46 44 70 45 10 0 20 -7 23
-15z m-318 -407 c-4 -31 -67 -63 -104 -54 -20 5 -24 10 -15 15 10 7 10 10 1
16 -19 12 46 41 98 44 19 1 23 -3 20 -21z m240 -185 c30 -23 41 -53 19 -53
-24 0 -152 30 -166 40 -8 4 -11 15 -7 25 9 25 116 17 154 -12z m895 0 c-7 -2
-19 -2 -25 0 -7 3 -2 5 12 5 14 0 19 -2 13 -5z m-536 -175 c-6 -4 -16 -4 -22
0 -5 4 -18 5 -27 4 -10 -2 -18 1 -18 7 0 13 52 18 66 6 9 -7 9 -12 1 -17z m91
-15 c-10 -2 -26 -2 -35 0 -10 3 -2 5 17 5 19 0 27 -2 18 -5z m-168 -333 c0 -5
-2 -10 -4 -10 -3 0 -8 5 -11 10 -3 6 -1 10 4 10 6 0 11 -4 11 -10z m-552 -97
c-10 -2 -26 -2 -35 0 -10 3 -2 5 17 5 19 0 27 -2 18 -5z m-931 -308 c0 -8 -4
-15 -8 -15 -11 0 -20 16 -12 24 11 11 20 7 20 -9z m-1280 -231 c-3 -3 -12 -4
-19 -1 -8 3 -5 6 6 6 11 1 17 -2 13 -5z m64 -12 c-13 -2 -27 0 -32 5 -6 6 3 7
23 4 28 -4 29 -6 9 -9z m66 2 c-3 -3 -12 -4 -19 -1 -8 3 -5 6 6 6 11 1 17 -2
13 -5z m508 -225 c-55 -4 -136 -7 -180 -7 l-80 1 75 8 c41 5 81 10 89 11 7 2
54 1 105 -2 l91 -4 -100 -7z m-377 -16 c-10 -2 -26 -2 -35 0 -10 3 -2 5 17 5
19 0 27 -2 18 -5z m55 0 c-7 -2 -19 -2 -25 0 -7 3 -2 5 12 5 14 0 19 -2 13 -5z
m594 -1455 c-2 -29 -3 -6 -3 52 0 58 1 81 3 53 2 -29 2 -77 0 -105z m2533
-635 c0 -3 -7 -2 -16 1 -12 5 -15 2 -10 -11 6 -14 4 -15 -5 -6 -14 14 -3 34
16 26 8 -3 15 -7 15 -10z m-50 -43 c0 -5 -5 -10 -11 -10 -5 0 -7 5 -4 10 3 6
8 10 11 10 2 0 4 -4 4 -10z m-58 -87 c-6 -2 -10 -9 -7 -13 3 -5 0 -12 -6 -16
-8 -4 -9 -3 -5 4 4 7 3 12 -2 12 -6 0 -13 -7 -16 -16 -4 -9 -9 -14 -13 -11 -3
4 -12 -1 -20 -11 -13 -16 -14 -16 -5 1 9 20 61 57 77 56 6 0 4 -3 -3 -6z
m-117 -60 c-3 -27 -8 -59 -11 -73 -3 -15 3 -9 15 18 23 48 34 54 27 16 -5 -26
-45 -78 -54 -70 -5 6 19 156 26 156 2 0 1 -21 -3 -47z m-2185 -54 c0 -16 -4
-28 -9 -25 -8 5 -3 56 5 56 2 0 4 -14 4 -31z m2097 -31 c-3 -7 -5 -2 -5 12 0
14 2 19 5 13 2 -7 2 -19 0 -25z m60 -70 c-3 -7 -5 -2 -5 12 0 14 2 19 5 13 2
-7 2 -19 0 -25z m1123 -220 c0 -18 -2 -20 -9 -8 -6 8 -7 18 -5 22 9 14 14 9
14 -14z m-20 -43 c0 -17 -4 -23 -15 -19 -11 5 -12 10 -2 25 15 25 17 24 17 -6z
m-1000 -5 c0 -17 -2 -19 -14 -8 -10 9 -11 15 -2 20 16 11 16 10 16 -12z m920
-70 c0 -5 -4 -10 -10 -10 -5 0 -10 5 -10 10 0 6 5 10 10 10 6 0 10 -4 10 -10z
m-2249 -47 c13 -16 12 -17 -3 -4 -17 13 -22 21 -14 21 2 0 10 -8 17 -17z m389
-33 c0 -5 -2 -10 -4 -10 -3 0 -8 5 -11 10 -3 6 -1 10 4 10 6 0 11 -4 11 -10z
m-1037 -37 c-7 -2 -19 -2 -25 0 -7 3 -2 5 12 5 14 0 19 -2 13 -5z m482 -133
c10 -11 16 -20 13 -20 -3 0 -13 9 -23 20 -10 11 -16 20 -13 20 3 0 13 -9 23
-20z m-404 -23 c-10 -9 -11 -8 -5 6 3 10 9 15 12 12 3 -3 0 -11 -7 -18z m597
-24 c-10 -2 -28 -2 -40 0 -13 2 -5 4 17 4 22 1 32 -1 23 -4z m-522 -35 l29
-33 -32 29 c-31 28 -38 36 -30 36 2 0 16 -15 33 -32z m582 7 c-3 -3 -9 2 -12
12 -6 14 -5 15 5 6 7 -7 10 -15 7 -18z m-455 -52 c-7 -2 -19 -2 -25 0 -7 3 -2
5 12 5 14 0 19 -2 13 -5z m-720 -10 c-7 -2 -19 -2 -25 0 -7 3 -2 5 12 5 14 0
19 -2 13 -5z m830 0 c-13 -2 -33 -2 -45 0 -13 2 -3 4 22 4 25 0 35 -2 23 -4z
m747 -3 c0 -5 -7 -10 -15 -10 -8 0 -15 5 -15 10 0 6 7 10 15 10 8 0 15 -4 15
-10z m235 -119 c-6 -5 -25 10 -25 20 0 5 6 4 14 -3 8 -7 12 -15 11 -17z m-45
-7 c0 -8 -5 -12 -10 -9 -6 4 -8 11 -5 16 9 14 15 11 15 -7z m-236 -9 c3 -9 0
-15 -9 -15 -9 0 -12 6 -9 15 4 8 7 15 9 15 2 0 5 -7 9 -15z m-4 -39 c0 -6 5
-4 10 4 6 9 10 10 10 3 0 -16 -17 -26 -25 -13 -3 5 -15 10 -26 10 -10 0 -19 7
-19 15 0 12 4 13 25 3 14 -6 25 -16 25 -22z m-110 -18 c0 -5 -4 -8 -10 -8 -5
0 -10 5 -10 11 0 5 -4 7 -10 4 -5 -3 -10 1 -10 9 0 14 3 14 20 4 11 -7 20 -16
20 -20z m-979 -165 c-12 -20 -14 -14 -5 12 4 9 9 14 11 11 3 -2 0 -13 -6 -23z"/>
<path d="M6668 5408 c9 -9 15 -9 24 0 9 9 7 12 -12 12 -19 0 -21 -3 -12 -12z"/>
<path d="M6640 5385 c-7 -8 -15 -13 -19 -11 -4 3 -8 -5 -8 -16 -1 -12 -15 -32
-30 -44 -22 -17 -25 -24 -13 -28 25 -9 55 0 52 16 -1 8 9 20 23 26 29 13 33
32 8 32 -17 1 -17 2 0 14 10 8 14 17 9 20 -5 3 -15 -1 -22 -9z"/>
<path d="M6525 5350 c4 -6 11 -8 16 -5 14 9 11 15 -7 15 -8 0 -12 -5 -9 -10z"/>
<path d="M6560 5350 c0 -5 4 -10 9 -10 6 0 13 5 16 10 3 6 -1 10 -9 10 -9 0
-16 -4 -16 -10z"/>
<path d="M7037 5290 c3 -10 23 -26 44 -34 46 -19 59 -20 59 -6 0 6 -8 10 -19
10 -10 0 -34 11 -53 24 -31 21 -35 21 -31 6z"/>
<path d="M5570 5050 c0 -5 5 -10 10 -10 6 0 10 5 10 10 0 6 -4 10 -10 10 -5 0
-10 -4 -10 -10z"/>
<path d="M4960 4851 c0 -5 5 -13 10 -16 6 -3 10 -2 10 4 0 5 -4 13 -10 16 -5
3 -10 2 -10 -4z"/>
<path d="M4492 4698 c-16 -16 -15 -28 3 -28 8 0 15 9 15 20 0 23 -2 24 -18 8z"/>
<path d="M4286 4684 c-39 -22 -20 -38 34 -29 40 7 41 8 24 26 -20 23 -21 23
-58 3z"/>
<path d="M3445 4195 c-59 -9 -66 -12 -52 -23 16 -13 127 -23 127 -11 0 4 27
12 60 19 33 7 59 15 56 17 -8 9 -126 7 -191 -2z"/>
<path d="M3680 4200 c0 -12 24 -12 60 0 21 7 19 8 -17 9 -24 1 -43 -3 -43 -9z"/>
<path d="M2913 4013 c9 -2 25 -2 35 0 9 3 1 5 -18 5 -19 0 -27 -2 -17 -5z"/>
<path d="M2833 4003 c9 -2 23 -2 30 0 6 3 -1 5 -18 5 -16 0 -22 -2 -12 -5z"/>
<path d="M2635 3800 c11 -5 27 -9 35 -9 9 0 8 4 -5 9 -11 5 -27 9 -35 9 -9 0
-8 -4 5 -9z"/>
<path d="M2636 3729 c-9 -47 -7 -127 3 -134 6 -3 101 -19 213 -35 112 -16 246
-36 298 -45 125 -19 735 -106 976 -139 193 -26 336 -34 318 -17 -5 5 -151 30
-324 56 -459 67 -1117 172 -1135 180 -5 3 15 3 45 0 52 -4 53 -3 15 6 -108 25
-271 46 -282 37 -18 -15 -16 -2 3 16 8 9 11 16 5 16 -19 0 -13 58 7 63 13 4
11 5 -5 6 -19 1 -23 -4 -23 -28 0 -16 -5 -42 -10 -56 -8 -21 -16 -26 -38 -23
-26 3 -27 6 -30 66 -3 68 -25 87 -36 31z m197 -106 c-7 -2 -21 -2 -30 0 -10 3
-4 5 12 5 17 0 24 -2 18 -5z m60 -10 c-7 -2 -21 -2 -30 0 -10 3 -4 5 12 5 17
0 24 -2 18 -5z m65 -10 c-10 -2 -26 -2 -35 0 -10 3 -2 5 17 5 19 0 27 -2 18
-5z"/>
<path d="M2828 3723 c6 -2 18 -2 25 0 6 3 1 5 -13 5 -14 0 -19 -2 -12 -5z"/>
<path d="M2808 3653 c6 -2 18 -2 25 0 6 3 1 5 -13 5 -14 0 -19 -2 -12 -5z"/>
<path d="M2868 3643 c7 -3 16 -2 19 1 4 3 -2 6 -13 5 -11 0 -14 -3 -6 -6z"/>
<path d="M2928 3633 c6 -2 18 -2 25 0 6 3 1 5 -13 5 -14 0 -19 -2 -12 -5z"/>
<path d="M2998 3623 c7 -3 16 -2 19 1 4 3 -2 6 -13 5 -11 0 -14 -3 -6 -6z"/>
<path d="M7946 3608 c5 -8 2 -9 -10 -5 -10 4 -15 3 -11 -3 3 -5 1 -19 -6 -31
-8 -16 -8 -20 1 -17 6 2 11 7 10 11 0 5 9 16 21 26 20 16 20 18 5 24 -11 5
-15 3 -10 -5z"/>
<path d="M3108 3583 c6 -2 18 -2 25 0 6 3 1 5 -13 5 -14 0 -19 -2 -12 -5z"/>
<path d="M3173 3573 c9 -2 23 -2 30 0 6 3 -1 5 -18 5 -16 0 -22 -2 -12 -5z"/>
<path d="M8069 3543 c-13 -16 -12 -17 4 -4 16 13 21 21 13 21 -2 0 -10 -8 -17
-17z"/>
<path d="M8269 3538 c-8 -7 -22 -22 -29 -32 -15 -19 -14 -19 18 -2 17 9 32 23
32 31 0 18 -2 18 -21 3z"/>
<path d="M8005 3521 c-3 -5 0 -13 6 -17 7 -4 9 -3 5 4 -3 5 0 13 6 15 9 4 10
6 1 6 -6 1 -14 -3 -18 -8z"/>
<path d="M2555 3488 c-19 -84 4 -137 31 -73 11 27 13 47 7 69 -12 41 -30 43
-38 4z"/>
<path d="M4595 3472 c-3 -7 -5 -67 -5 -133 l0 -119 -31 0 c-17 0 -28 -4 -24
-10 7 -12 -12 -12 -40 0 -14 6 -16 9 -5 11 19 2 -65 17 -102 18 -17 1 -28 -4
-28 -12 0 -9 32 -17 103 -26 56 -8 108 -16 115 -18 8 -3 12 -27 12 -67 0 -61
14 -131 28 -140 15 -9 209 -27 225 -21 21 9 27 26 33 109 4 39 8 73 10 75 1 2
43 -1 91 -7 48 -6 89 -9 90 -8 1 1 -2 7 -6 14 -4 7 -45 18 -92 24 -46 6 -86
13 -89 15 -2 2 -5 49 -6 104 -1 55 -7 106 -13 113 -12 14 -147 40 -162 31 -5
-4 -9 -2 -9 4 0 7 -8 7 -25 1 -25 -10 -45 4 -29 20 9 8 204 -23 224 -35 6 -4
10 1 10 10 0 20 -26 30 -130 50 -96 18 -137 17 -145 -3z m71 -108 c8 3 13 2
11 -2 -3 -4 1 -13 9 -19 7 -7 15 -9 19 -4 3 5 1 12 -5 16 -5 3 -10 16 -9 28 0
21 1 21 10 -3 6 -14 11 -29 12 -35 2 -11 28 -34 40 -35 4 0 6 3 5 8 -5 16 12
72 22 72 13 0 13 -27 -1 -36 -8 -4 -8 -9 0 -17 13 -13 15 -147 2 -147 -5 0
-11 5 -13 12 -2 6 -11 -11 -20 -37 -17 -56 -38 -71 -38 -28 0 19 3 24 9 15 6
-10 10 -7 13 12 3 15 1 29 -3 32 -5 3 -9 0 -9 -7 0 -10 -2 -10 -12 0 -11 10
-10 15 5 25 19 15 23 41 6 52 -6 3 -15 1 -19 -6 -4 -7 -16 -9 -27 -6 -14 5
-19 1 -20 -16 -1 -12 3 -26 10 -30 8 -5 6 -8 -6 -8 -15 0 -16 -7 -10 -72 4
-53 3 -69 -5 -64 -14 8 -17 302 -4 333 6 15 8 13 10 -10 3 -20 8 -27 18 -23z
m98 38 c2 -4 1 -14 -5 -22 -5 -8 -9 -13 -10 -10 0 3 -2 13 -4 23 -3 17 10 24
19 9z m71 -282 c3 -5 1 -10 -4 -10 -6 0 -11 5 -11 10 0 6 2 10 4 10 3 0 8 -4
11 -10z"/>
<path d="M4656 3311 c-3 -5 3 -11 15 -14 16 -4 18 -3 8 9 -13 16 -16 17 -23 5z"/>
<path d="M3100 3404 c0 -11 -6 -15 -20 -11 -11 3 -23 1 -26 -4 -3 -5 7 -9 23
-10 43 0 113 -9 163 -19 25 -5 149 -23 275 -39 520 -68 731 -92 753 -86 15 4
21 2 17 -5 -4 -6 5 -10 22 -10 22 0 25 2 13 10 -12 8 -10 10 10 11 14 1 3 6
-25 11 -33 6 -57 6 -72 -1 -17 -8 -22 -7 -20 1 2 13 -56 25 -293 57 -533 73
-672 92 -732 101 -87 13 -88 13 -88 -6z"/>
<path d="M7951 3407 c-52 -9 -53 -10 -47 -38 4 -21 2 -29 -8 -29 -8 0 -16 6
-19 14 -5 11 -14 12 -46 4 -22 -6 -40 -13 -39 -17 3 -28 -3 -33 -22 -16 -15
14 -23 16 -32 7 -8 -8 -7 -13 6 -18 14 -6 13 -9 -9 -30 -34 -31 -33 -48 3 -39
15 3 44 9 64 12 21 3 35 9 32 14 -3 5 1 9 9 9 8 0 18 10 21 23 7 21 8 21 15 3
7 -18 8 -18 14 -2 5 13 14 16 31 12 18 -4 25 0 35 20 6 14 17 24 24 21 6 -2
23 7 37 21 14 13 19 21 11 17 -10 -6 -13 -4 -9 7 7 17 2 17 -71 5z m-96 -67
c-3 -5 -10 -10 -16 -10 -5 0 -9 5 -9 10 0 6 7 10 16 10 8 0 12 -4 9 -10z m-15
-30 c0 -5 -8 -10 -17 -10 -15 0 -16 2 -3 10 19 12 20 12 20 0z"/>
<path d="M8030 3340 c0 -5 5 -10 10 -10 6 0 10 5 10 10 0 6 -4 10 -10 10 -5 0
-10 -4 -10 -10z"/>
<path d="M8120 3335 c7 -9 15 -13 17 -11 7 7 -7 26 -19 26 -6 0 -6 -6 2 -15z"/>
<path d="M7978 3324 c-5 -4 -8 -16 -8 -28 0 -14 3 -17 11 -9 6 6 9 19 7 28 -1
9 -6 13 -10 9z"/>
<path d="M2993 3313 c9 -2 25 -2 35 0 9 3 1 5 -18 5 -19 0 -27 -2 -17 -5z"/>
<path d="M3061 3306 c2 -3 49 -10 104 -16 55 -5 120 -13 145 -16 25 -4 42 -4
39 0 -4 4 -60 13 -125 21 -121 15 -171 18 -163 11z"/>
<path d="M7692 3303 c-12 -2 -20 -8 -17 -13 6 -10 45 -1 45 11 0 5 -1 8 -2 8
-2 -1 -13 -4 -26 -6z"/>
<path d="M7633 3273 c-4 -9 -15 -25 -25 -35 -12 -12 -17 -26 -13 -38 5 -16 3
-19 -12 -13 -10 3 -23 10 -29 15 -19 14 -43 -2 -56 -38 -6 -19 -20 -37 -30
-40 -10 -3 -16 -9 -13 -14 3 -5 11 -7 18 -4 7 2 31 -2 54 -10 23 -8 44 -12 47
-8 11 10 36 11 36 1 0 -5 7 -9 15 -9 18 0 20 17 3 23 -17 5 71 97 92 97 9 0
24 6 33 13 15 10 11 12 -28 12 -39 0 -45 2 -45 20 0 38 -35 59 -47 28z m17
-43 c0 -5 -5 -10 -11 -10 -5 0 -7 5 -4 10 3 6 8 10 11 10 2 0 4 -4 4 -10z
m-84 -65 c4 -8 10 -12 15 -9 5 3 6 -2 3 -10 -12 -30 -44 -12 -44 25 0 15 20
10 26 -6z m34 -45 c0 -5 -5 -10 -11 -10 -5 0 -7 5 -4 10 3 6 8 10 11 10 2 0 4
-4 4 -10z"/>
<path d="M3042 3250 c15 -4 67 -11 115 -14 l88 -5 -90 14 c-49 7 -101 13 -115
13 -25 0 -25 0 2 -8z"/>
<path d="M7560 3249 c0 -15 18 -19 23 -6 3 8 -1 14 -9 14 -8 0 -14 -4 -14 -8z"/>
<path d="M7917 3246 c-3 -8 -2 -18 3 -21 13 -8 24 15 12 27 -6 6 -11 4 -15 -6z"/>
<path d="M7480 3240 c-9 -6 -10 -10 -3 -10 6 0 15 5 18 10 8 12 4 12 -15 0z"/>
<path d="M7821 3243 c4 -24 -3 -43 -15 -43 -8 0 -17 -6 -20 -12 -5 -10 -7 -10
-12 0 -6 13 -24 7 -24 -9 0 -6 5 -7 10 -4 6 3 10 2 10 -4 0 -14 -29 -41 -44
-41 -7 0 -22 -9 -34 -21 l-23 -20 7 28 c7 26 6 27 -9 11 -9 -9 -17 -24 -17
-33 0 -14 6 -16 28 -10 15 3 36 15 48 26 11 10 25 19 31 19 5 0 24 14 41 30
18 17 38 30 46 30 20 0 26 12 19 38 -5 20 -45 33 -42 15z"/>
<path d="M3275 3223 c17 -3 37 -10 45 -16 13 -10 13 -10 1 6 -8 10 -25 16 -45
16 l-31 -2 30 -4z"/>
<path d="M3927 3093 c-4 -3 -7 -134 -7 -290 0 -225 3 -291 14 -318 l15 -35
182 0 c162 0 183 2 195 18 11 14 13 15 18 2 2 -8 14 -46 27 -85 31 -99 61
-154 109 -200 l41 -40 -2 233 -3 232 -83 0 -83 0 0 168 c0 119 -4 173 -12 185
-9 11 -30 17 -66 18 -29 1 -55 6 -58 11 -3 5 -13 1 -21 -9 -13 -16 -14 -16 -9
-1 4 14 -3 19 -32 23 -20 3 -50 10 -67 15 -28 9 -27 9 8 4 22 -3 37 -1 37 5 0
13 90 11 107 -2 7 -5 10 -13 7 -18 -3 -5 9 -9 25 -9 17 0 31 5 31 11 0 6 6 9
13 6 6 -2 11 -10 9 -16 -1 -7 2 -10 7 -7 5 4 12 0 14 -6 4 -8 6 -7 6 4 1 25
-10 49 -20 42 -5 -3 -6 2 -3 11 6 15 1 16 -42 10 -36 -5 -45 -4 -34 4 11 8 -3
9 -50 6 -47 -4 -59 -3 -45 5 14 7 -1 8 -55 5 -51 -4 -68 -2 -55 4 14 7 4 8
-35 5 -39 -3 -49 -2 -35 5 18 8 16 10 -11 10 -17 1 -34 -2 -37 -6z m68 -61
c-3 -3 -11 0 -18 7 -9 10 -8 11 6 5 10 -3 15 -9 12 -12z m-28 -74 c-3 -8 -6
-5 -6 6 -1 11 2 17 5 13 3 -3 4 -12 1 -19z m284 -61 c-8 -8 -11 -6 -11 8 0 15
-3 16 -12 7 -19 -19 -38 -14 -38 11 0 18 2 19 10 7 5 -8 10 -10 10 -3 0 6 9 9
20 6 12 -3 20 -2 19 3 -1 5 0 16 1 24 2 8 5 0 7 -19 3 -18 0 -38 -6 -44z
m-274 -89 c-2 -24 -4 -5 -4 42 0 47 2 66 4 43 2 -24 2 -62 0 -85z m218 -28 c3
-5 1 -10 -4 -10 -6 0 -11 5 -11 10 0 6 2 10 4 10 3 0 8 -4 11 -10z m45 -8 c0
-13 -12 -22 -22 -16 -10 6 -1 24 13 24 5 0 9 -4 9 -8z"/>
<path d="M3198 2993 c6 -2 18 -2 25 0 6 3 1 5 -13 5 -14 0 -19 -2 -12 -5z"/>
<path d="M7261 2983 c-1 -8 -14 -13 -31 -13 -18 0 -33 -6 -36 -15 -4 -9 -19
-15 -38 -15 -45 0 -66 -16 -35 -26 21 -6 19 -9 -26 -21 -109 -31 -114 -33 -70
-27 59 8 139 4 149 -6 15 -15 36 -12 36 5 0 9 -6 12 -17 9 -13 -4 -11 0 6 15
14 12 37 21 57 21 26 0 32 4 28 15 -4 9 0 15 9 15 8 0 17 3 19 8 2 4 19 15 38
24 40 19 20 23 -42 9 -26 -6 -39 -5 -42 3 -3 7 -5 7 -5 -1z"/>
<path d="M3456 2960 c7 -7 19 -7 35 -1 23 9 22 10 -10 10 -24 1 -32 -2 -25 -9z"/>
<path d="M3157 2953 c-4 -3 -7 -133 -7 -289 0 -203 -3 -283 -11 -286 -9 -3 -9
-9 0 -25 13 -25 15 -73 3 -73 -4 0 -28 20 -52 45 -25 25 -53 45 -65 45 -15 -1
-3 -17 52 -69 l73 -67 2 -200 3 -199 55 -3 c78 -5 80 1 80 180 l0 148 33 -6
c28 -4 30 -3 14 8 -51 36 -53 39 -22 28 28 -9 29 -9 11 5 -11 8 -23 15 -26 15
-4 0 -10 163 -14 363 -8 405 -4 387 -81 387 -23 0 -45 -3 -48 -7z m52 -52 c10
-6 12 -26 8 -81 -3 -40 -10 -76 -15 -79 -6 -3 -12 -17 -15 -31 -2 -14 -5 12
-6 56 0 45 -4 96 -7 113 -7 32 6 40 35 22z"/>
<path d="M8790 2940 l-25 -8 25 -1 c14 -1 36 -4 50 -7 18 -4 21 -3 11 4 -11 8
-9 11 10 15 17 3 14 4 -11 5 -19 0 -46 -4 -60 -8z"/>
<path d="M8918 2943 c7 -3 16 -2 19 1 4 3 -2 6 -13 5 -11 0 -14 -3 -6 -6z"/>
<path d="M8450 2919 c-105 -15 -223 -64 -335 -140 -52 -35 -111 -50 -191 -51
-37 0 -64 -5 -64 -10 0 -7 -17 -8 -42 -5 -24 3 -35 3 -26 -1 10 -4 -23 -7 -73
-7 -49 0 -93 -4 -97 -10 -4 -5 -20 -11 -37 -12 -16 -2 -39 -4 -50 -7 -11 -2
-39 -4 -63 -5 -26 0 -41 -5 -37 -11 3 -6 -4 -9 -17 -9 -47 2 -184 -23 -218
-40 -50 -25 -153 -57 -245 -76 -113 -24 -111 -23 -130 -51 -16 -25 -16 -26 4
-19 17 5 20 3 15 -12 -3 -10 -2 -14 3 -8 11 14 145 13 160 -2 7 -6 22 -9 34
-6 16 5 20 3 14 -6 -4 -8 -18 -11 -35 -8 -14 3 -39 -1 -55 -9 -21 -11 -31 -11
-41 -3 -11 9 -14 9 -14 0 0 -6 -10 -10 -22 -8 -13 2 -17 2 -10 0 9 -3 12 -14
10 -28 -4 -19 0 -24 23 -27 15 -2 36 -1 47 3 15 6 20 4 16 -5 -4 -9 8 -15 36
-19 23 -3 49 -12 58 -20 9 -8 31 -19 47 -25 28 -10 29 -10 5 -11 l-24 -1 24
-17 c30 -21 115 -25 131 -7 9 11 8 14 -5 14 -10 0 -14 5 -11 10 3 6 -1 11 -9
11 -9 1 -19 3 -23 4 -5 2 -18 6 -30 10 -34 11 -18 24 24 19 46 -6 101 5 83 16
-7 4 -9 13 -5 20 5 8 4 11 -2 7 -6 -4 -14 0 -17 9 -4 9 -2 13 5 8 15 -9 90 16
83 28 -3 4 -10 5 -16 2 -7 -4 -8 -2 -4 4 7 11 71 10 83 -1 3 -4 14 -2 24 3 10
6 20 7 22 3 5 -8 63 -8 250 -3 82 3 114 13 65 23 -13 2 2 5 33 6 31 0 96 8
143 16 48 9 92 12 98 9 7 -5 8 -2 3 6 -6 9 -2 10 15 5 12 -4 20 -3 17 2 -3 4
10 8 29 7 19 -1 37 2 40 7 3 5 10 9 15 9 6 0 7 -4 4 -10 -4 -6 17 -10 54 -10
38 0 61 4 61 11 0 6 -7 8 -16 5 -8 -3 -22 1 -30 9 -12 12 -12 15 -2 16 7 1 22
2 33 3 11 1 48 3 83 4 45 1 61 5 56 14 -4 6 -3 9 2 6 12 -8 223 20 243 32 14
8 13 9 -4 10 -19 1 -19 1 -2 11 21 12 13 29 -14 29 -16 0 -19 -4 -14 -21 5
-15 4 -19 -4 -15 -6 4 -11 14 -11 22 0 8 -5 14 -11 14 -5 0 -8 4 -4 10 3 5 -9
14 -27 19 l-33 9 33 1 c18 1 42 6 53 11 13 8 19 7 19 0 0 -6 11 -8 28 -5 l27
6 -27 -16 c-33 -18 -38 -31 -7 -14 12 6 24 7 28 2 3 -5 20 -8 36 -8 17 1 39
-3 50 -8 11 -6 28 -14 37 -18 10 -5 20 -4 23 1 4 6 10 8 15 5 5 -3 11 -1 14 4
3 5 16 7 29 5 12 -2 16 -2 10 2 -7 3 -13 9 -13 14 0 10 40 1 58 -13 17 -14 31
6 27 39 -2 20 2 23 27 20 15 -2 31 0 34 5 5 9 -43 12 -126 9 l-45 -2 20 23 20
22 -25 -13 c-14 -7 -27 -17 -30 -21 -3 -5 -25 -5 -48 -1 -39 6 -41 8 -22 20
12 7 20 8 20 2 0 -29 83 9 85 39 1 17 -3 19 -22 15 -37 -10 -26 6 20 26 23 11
53 29 67 40 l25 20 -37 0 c-21 0 -38 4 -38 10 0 6 -30 8 -82 4 -83 -6 -160 -6
-165 0 -2 2 11 11 29 19 33 16 33 17 6 17 -14 0 -29 -6 -31 -12 -4 -10 -7 -10
-14 -1 -9 13 -100 13 -183 2z m-75 -222 c0 -15 -75 -27 -95 -16 -11 6 -9 9 10
9 14 0 36 6 50 13 26 14 35 13 35 -6z m383 -14 c-10 -2 -26 -2 -35 0 -10 3 -2
5 17 5 19 0 27 -2 18 -5z m-215 -46 c18 -4 17 -5 -5 -6 -23 -1 -28 3 -27 22 1
15 3 17 6 5 2 -9 14 -19 26 -21z m-56 -13 c-3 -3 -12 -4 -19 -1 -8 3 -5 6 6 6
11 1 17 -2 13 -5z m-79 -11 c-10 -2 -26 -2 -35 0 -10 3 -2 5 17 5 19 0 27 -2
18 -5z m82 -43 c0 -5 -12 -10 -27 -10 -22 0 -25 2 -13 10 20 13 40 13 40 0z
m87 4 c-3 -3 -12 -4 -19 -1 -8 3 -5 6 6 6 11 1 17 -2 13 -5z m-350 -80 c-3 -3
-12 -4 -19 -1 -8 3 -5 6 6 6 11 1 17 -2 13 -5z m-494 -11 c-7 -2 -19 -2 -25 0
-7 3 -2 5 12 5 14 0 19 -2 13 -5z m-510 -17 c7 -19 -1 -26 -30 -26 -13 0 -23
6 -23 14 0 8 -10 17 -22 19 -13 2 -2 5 23 6 32 1 49 -3 52 -13z m71 5 c3 -5
-1 -11 -9 -15 -9 -3 -15 0 -15 9 0 16 16 20 24 6z m6 -35 c0 -2 -7 -7 -16 -10
-8 -3 -12 -2 -9 4 6 10 25 14 25 6z m-283 -82 c-3 -3 -12 -4 -19 -1 -8 3 -5 6
6 6 11 1 17 -2 13 -5z"/>
<path d="M8990 2920 c-11 -8 -7 -9 15 -4 37 8 45 14 19 14 -10 0 -26 -5 -34
-10z"/>
<path d="M7226 2881 c-4 -7 -5 -15 -2 -18 9 -9 19 4 14 18 -4 11 -6 11 -12 0z"/>
<path d="M6963 2836 c0 -8 6 -12 14 -9 7 3 10 9 7 14 -8 14 -21 11 -21 -5z"/>
<path d="M8925 2832 c-16 -9 -31 -17 -31 -17 -1 0 -5 -11 -9 -24 -6 -21 -5
-23 11 -16 11 4 52 13 93 19 73 11 74 11 56 30 -19 18 -19 18 3 12 13 -5 22
-3 22 3 0 18 -111 13 -145 -7z"/>
<path d="M9350 2829 c0 -5 5 -7 10 -4 6 3 10 8 10 11 0 2 -4 4 -10 4 -5 0 -10
-5 -10 -11z"/>
<path d="M9965 2823 c-36 -6 -47 -20 -34 -44 12 -24 11 -29 -6 -29 -8 0 -16
-7 -16 -15 -1 -8 -2 -21 -3 -27 -1 -7 6 -12 14 -10 10 1 9 -2 -4 -13 -19 -14
-27 -16 -66 -19 -28 -2 -23 -42 10 -70 17 -14 27 -26 22 -26 -12 0 -10 -19 3
-40 15 -24 14 -40 -2 -40 -10 0 -14 6 -10 19 4 17 2 17 -21 5 -15 -7 -29 -10
-32 -5 -3 5 -15 11 -27 15 -13 4 -23 13 -23 20 0 22 -25 37 -38 24 -9 -9 -12
-9 -12 2 0 10 -3 11 -10 4 -12 -12 -2 -47 11 -38 5 3 9 0 9 -5 0 -6 0 -14 0
-18 0 -5 -6 -8 -12 -8 -7 0 -16 -4 -19 -8 -3 -5 -9 9 -13 31 -5 35 -9 40 -28
35 -20 -4 -21 -3 -5 7 12 8 15 18 11 36 -4 15 -2 24 6 24 6 0 8 -6 5 -12 -4
-7 1 -4 9 6 9 11 16 14 16 8 0 -7 5 -12 10 -12 6 0 10 9 10 19 0 11 6 22 13
25 6 3 -4 5 -23 3 -19 -1 -38 -6 -42 -12 -5 -6 -8 -6 -8 2 0 7 -7 10 -15 7 -8
-4 -12 -10 -9 -15 3 -5 0 -9 -6 -9 -6 0 -8 -4 -5 -10 3 -5 2 -10 -3 -10 -5 0
-13 10 -16 23 -6 22 -7 22 -32 -8 l-25 -30 5 27 c5 27 4 27 -21 11 -22 -15
-23 -18 -9 -28 9 -7 13 -15 9 -18 -10 -11 -25 -8 -18 3 8 14 -73 33 -104 24
-14 -5 -37 -9 -51 -10 -14 0 -56 -4 -94 -8 -49 -6 -66 -5 -61 3 3 7 24 11 45
9 28 -1 45 5 68 24 25 20 28 27 16 32 -8 3 -12 2 -9 -3 10 -16 -17 -24 -87
-27 -38 -2 -79 -6 -91 -9 -22 -6 -22 -6 1 8 12 7 19 16 16 20 -4 4 1 14 12 23
10 8 13 13 7 9 -16 -8 -17 17 -1 33 9 9 9 12 0 12 -7 0 -12 -4 -12 -10 0 -5
-5 -10 -11 -10 -5 0 -8 4 -4 9 3 5 0 13 -6 17 -8 4 -9 3 -5 -4 4 -7 2 -12 -4
-12 -6 0 -9 -4 -5 -9 3 -5 1 -13 -5 -16 -6 -4 -8 -15 -5 -26 6 -17 3 -18 -22
-9 -28 10 -28 9 -5 -6 24 -18 29 -39 10 -50 -6 -4 -8 -3 -4 4 7 12 -13 21 -32
14 -9 -3 -8 -8 5 -17 17 -13 17 -14 1 -20 -9 -4 -26 -1 -38 5 -18 9 -24 9 -30
0 -5 -9 -9 -9 -14 -1 -4 6 -24 11 -44 11 -34 0 -35 -1 -16 -15 18 -14 18 -14
-11 -15 -199 -6 -333 -19 -400 -39 -26 -8 -24 -9 18 -7 35 3 47 0 47 -11 0
-12 3 -12 16 1 20 21 40 10 22 -12 -12 -14 -10 -14 12 -2 14 7 33 22 42 34 9
11 20 17 25 13 4 -5 2 -12 -6 -16 -7 -5 -12 -12 -12 -17 1 -5 -2 -9 -6 -10
-27 -2 -63 -30 -63 -48 0 -17 1 -18 13 -4 16 20 143 33 151 15 5 -9 7 -9 12 1
3 6 10 10 15 6 5 -3 9 0 9 5 0 6 3 10 8 10 4 -1 9 -1 12 0 3 1 30 3 62 4 43 2
54 -1 46 -10 -18 -22 64 -2 99 23 32 24 32 24 46 4 7 -11 16 -17 20 -14 3 3 4
-1 3 -10 -1 -9 -6 -15 -12 -14 -5 2 -8 6 -7 10 5 15 -25 8 -31 -7 -4 -10 2
-19 17 -25 13 -5 16 -9 7 -10 -13 0 -13 -1 0 -10 12 -8 12 -10 -5 -10 -19 -1
-19 -1 -2 -14 21 -16 22 -26 2 -26 -8 0 -15 -4 -15 -10 0 -5 5 -10 12 -10 6 0
8 -3 5 -7 -4 -3 1 -12 11 -19 16 -12 16 -13 0 -14 -9 0 -23 7 -32 15 -8 8 -19
15 -25 15 -6 0 -11 4 -11 9 0 14 -32 23 -44 11 -7 -7 -7 -10 1 -10 14 0 23
-34 13 -50 -9 -14 -51 5 -87 40 -18 16 -23 18 -23 5 0 -8 -4 -15 -10 -15 -5 0
-10 4 -10 8 0 10 -19 13 -84 13 -64 -1 -80 -16 -27 -25 56 -9 52 -25 -4 -18
-26 3 -50 0 -59 -7 -10 -9 -16 -8 -27 5 -9 11 -10 18 -2 22 7 5 -2 19 -24 37
-19 17 -47 40 -61 53 -28 25 -41 29 -23 8 9 -10 9 -16 1 -21 -6 -4 -14 -5 -17
-2 -3 3 -19 -7 -37 -23 -17 -17 -34 -30 -38 -30 -13 0 -9 -40 5 -41 6 0 -1 -5
-18 -10 -16 -5 -36 -7 -42 -4 -7 2 -23 1 -35 -4 -22 -8 -21 -9 9 -15 32 -7 77
-51 68 -66 -5 -8 -118 30 -123 41 -2 4 -15 1 -30 -7 -20 -10 -28 -11 -34 -1
-6 9 -8 9 -8 -1 0 -7 -5 -10 -10 -7 -18 11 -77 13 -91 4 -8 -5 -9 -9 -4 -9 6
0 4 -4 -4 -9 -12 -8 -12 -12 3 -26 13 -13 14 -20 5 -31 -9 -11 -18 -7 -50 26
-22 22 -46 40 -56 40 -30 0 -9 11 36 19 3 1 -4 7 -15 15 -18 14 -18 15 14 29
29 12 31 15 18 27 -13 10 -16 10 -16 -3 0 -28 -93 -29 -104 -1 -4 12 -2 12 14
4 25 -13 26 0 2 21 -24 21 -52 31 -52 19 0 -6 -13 -10 -30 -10 -25 0 -30 4
-30 23 0 16 -6 23 -21 24 -17 2 -20 -2 -15 -22 5 -21 2 -26 -26 -33 -18 -5
-35 -5 -36 0 -2 4 -7 6 -12 3 -4 -2 -15 4 -25 15 -23 26 -35 25 -28 0 3 -11 0
-20 -6 -20 -6 0 -11 -8 -11 -17 0 -9 -3 -13 -7 -10 -3 4 -12 -1 -19 -12 -7
-10 -31 -21 -54 -25 -22 -3 -40 -10 -40 -14 0 -4 -43 -7 -95 -7 -78 1 -92 -1
-83 -13 8 -9 30 -12 70 -10 44 2 61 -1 68 -12 8 -12 10 -12 10 -1 0 11 3 11
17 0 14 -12 12 -15 -23 -21 -21 -4 -77 -7 -124 -8 l-85 -1 40 -15 c48 -18 64
-22 88 -23 10 -1 16 -5 13 -9 -3 -5 1 -9 9 -9 8 0 12 4 9 8 -2 4 8 7 23 6 21
-2 28 -8 27 -24 0 -12 5 -19 12 -16 20 7 13 -46 -7 -61 -30 -21 2 -69 33 -50
6 4 9 1 6 -7 -3 -8 -17 -13 -34 -12 -93 6 -110 9 -116 23 -5 12 -7 12 -7 -2
-1 -10 -8 -18 -17 -18 -8 0 -13 4 -10 9 4 5 -4 7 -16 3 -13 -3 -19 -1 -15 5 8
12 -50 56 -63 48 -6 -3 -10 -2 -10 4 0 5 -21 -2 -47 -15 -26 -14 -55 -23 -65
-21 -10 3 -25 -1 -33 -10 -8 -8 -20 -11 -26 -7 -8 5 -8 1 0 -14 6 -11 19 -23
30 -27 17 -5 17 -8 -7 -35 -19 -21 -28 -26 -34 -17 -5 8 -8 8 -8 1 0 -6 -12
-10 -27 -8 -16 2 -23 2 -16 -2 7 -3 9 -12 6 -20 -3 -9 2 -14 13 -15 33 -2 59
2 68 12 16 14 46 10 46 -6 0 -8 -7 -15 -16 -15 -8 0 -12 -5 -8 -11 4 -7 -7
-10 -34 -8 -23 2 -44 0 -48 -4 -11 -10 88 -13 229 -6 20 1 37 5 37 10 0 5 16
9 35 9 34 0 35 -1 35 -40 0 -33 -3 -40 -20 -40 -22 0 -27 -15 -7 -24 6 -3 3
-4 -7 -3 -10 1 -21 -4 -24 -12 -2 -8 -1 -11 4 -8 5 3 32 -10 59 -29 55 -37 65
-40 65 -21 0 7 15 13 35 14 20 2 35 -2 35 -8 0 -6 7 -8 16 -5 8 3 13 2 9 -3
-3 -5 -2 -11 2 -13 5 -1 17 -21 28 -42 18 -36 46 -53 66 -40 4 2 3 18 -3 35
-9 26 -12 29 -20 15 -19 -34 -48 -12 -48 36 0 14 5 18 15 14 8 -3 19 2 24 12
6 9 11 11 11 5 0 -9 11 -11 33 -7 25 5 29 3 17 -6 -12 -9 -11 -10 7 -5 12 3
39 -2 60 -11 21 -10 43 -18 48 -18 6 -1 9 -9 9 -19 -1 -9 2 -17 7 -17 5 0 9
-5 9 -11 0 -6 -6 -9 -14 -6 -8 3 -17 -1 -20 -9 -3 -8 -15 -14 -26 -14 -21 0
-27 -14 -10 -25 6 -3 10 0 10 7 0 7 7 2 16 -11 11 -16 20 -19 27 -12 6 6 16 7
27 1 18 -10 74 -12 245 -10 172 2 234 6 250 20 10 8 15 9 15 2 0 -6 7 -9 15
-6 9 4 15 0 15 -7 0 -11 3 -11 10 1 6 9 13 11 18 5 10 -13 175 -18 218 -6 19
5 34 6 34 3 0 -4 29 -8 65 -9 36 -1 65 2 65 8 0 5 3 8 8 8 4 -1 9 -1 12 0 14
5 234 18 400 25 63 2 91 13 69 27 -10 6 -3 9 20 9 24 0 32 4 28 14 -4 10 4 15
24 18 16 3 29 0 29 -5 0 -6 5 -6 13 0 17 14 110 10 115 -5 2 -7 10 -12 18 -12
8 0 11 -6 8 -15 -7 -18 12 -20 19 -2 4 9 8 9 15 -2 9 -13 13 -13 28 0 21 17
18 17 36 2 10 -9 43 -12 97 -11 65 2 85 -1 102 -15 16 -14 24 -16 35 -6 11 9
14 9 14 -2 0 -10 3 -10 11 -2 7 7 25 9 41 6 l29 -6 -2 512 c-1 423 -3 511 -14
511 -8 0 -17 5 -20 10 -4 6 -1 9 7 8 7 -2 12 3 11 10 -2 6 2 12 7 12 6 0 10
23 10 50 0 43 -2 49 -14 38 -10 -10 -11 -15 -2 -21 7 -6 4 -7 -7 -3 -10 3 -24
6 -30 6 -6 0 -1 7 11 16 12 8 19 20 16 26 -4 7 -2 8 4 4 7 -4 12 -6 13 -4 3
19 9 88 7 87 -2 -1 -16 -4 -33 -6z m15 -53 c0 -5 -4 -10 -9 -10 -6 0 -13 5
-16 10 -3 6 1 10 9 10 9 0 16 -4 16 -10z m-16 -105 c-7 -17 -11 -17 -39 -4
-19 9 -18 9 2 5 13 -2 26 0 29 5 9 14 14 10 8 -6z m-82 -32 c-6 -3 -9 -9 -6
-15 4 -6 -2 -5 -15 1 -26 14 -27 28 -3 34 21 4 43 -13 24 -20z m-455 -44 c-20
-3 -48 -16 -60 -27 -13 -12 -29 -22 -35 -22 -7 0 -12 -4 -12 -10 0 -5 -5 -10
-11 -10 -6 0 -8 7 -5 16 5 12 2 15 -11 10 -10 -3 -4 5 12 19 32 26 51 33 39
13 -5 -8 -3 -8 7 -2 25 16 83 31 99 25 9 -3 -1 -8 -23 -12z m63 7 c0 -2 -8
-10 -17 -17 -16 -13 -17 -12 -4 4 13 16 21 21 21 13z m-390 -16 c0 -5 -7 -10
-16 -10 -8 0 -12 5 -9 10 3 6 10 10 16 10 5 0 9 -4 9 -10z m120 -25 c0 -7 -8
-15 -18 -17 -13 -4 -18 1 -20 17 -1 18 2 22 18 18 11 -3 20 -11 20 -18z m213
8 c-4 -11 -3 -14 5 -9 7 4 12 3 12 -2 0 -5 9 -12 20 -15 13 -3 20 0 20 9 0 8
5 14 10 14 6 0 10 -5 10 -11 0 -8 5 -8 15 1 12 10 16 10 19 -1 9 -29 3 -46
-16 -41 -20 5 -25 -13 -5 -21 7 -3 5 -6 -5 -6 -22 -1 -24 -21 -3 -21 8 0 17 1
18 3 2 1 11 -4 20 -11 9 -8 20 -12 24 -9 4 3 13 -1 20 -8 32 -35 -94 -17 -143
20 -19 14 -34 21 -34 16 0 -6 5 -11 10 -11 23 0 8 -40 -20 -55 -27 -14 -29
-14 -23 2 5 15 3 16 -8 6 -7 -7 -22 -13 -33 -13 -18 0 -18 1 3 19 25 22 13 31
-34 25 l-30 -3 25 19 c14 11 34 20 44 20 11 0 16 3 12 7 -4 4 12 18 36 31 24
13 34 20 23 16 -11 -3 -27 -6 -35 -7 -8 0 -23 -7 -32 -15 -15 -12 -18 -13 -18
-1 1 20 48 52 66 45 8 -3 13 -2 9 3 -4 8 1 13 22 20 1 1 -1 -6 -4 -16z m137
13 c0 -3 -4 -8 -10 -11 -5 -3 -10 -1 -10 4 0 6 5 11 10 11 6 0 10 -2 10 -4z
m-300 -30 c0 -2 -7 -7 -16 -10 -8 -3 -12 -2 -9 4 6 10 25 14 25 6z m315 -44
c-3 -3 -11 0 -18 7 -9 10 -8 11 6 5 10 -3 15 -9 12 -12z m137 -42 c-12 -21
-18 -25 -20 -14 -3 12 21 41 35 44 1 0 -6 -13 -15 -30z m218 20 c11 -7 4 -10
-25 -9 -31 0 -36 2 -20 9 26 11 28 11 45 0z m-96 -73 c19 -20 20 -20 27 -1 7
18 8 18 8 1 1 -10 5 -16 10 -12 5 3 12 1 15 -3 3 -5 -7 -8 -22 -6 -15 1 -39 2
-54 3 -21 1 -28 6 -28 20 0 11 -6 22 -12 25 -7 3 -2 3 12 0 14 -4 34 -16 44
-27z m-129 3 c-3 -5 -12 -10 -18 -10 -7 0 -6 4 3 10 19 12 23 12 15 0z m-235
-25 c7 -8 16 -13 20 -10 4 3 11 -2 14 -11 4 -12 10 -13 19 -6 8 7 18 6 31 -4
20 -14 20 -14 0 -15 -10 -1 -26 0 -34 1 -10 1 -9 -3 5 -14 11 -8 25 -16 32
-16 7 0 24 -11 39 -25 33 -30 44 -31 51 -5 3 11 12 20 19 20 8 0 13 -3 12 -7
-3 -9 6 -13 30 -13 12 0 13 3 5 8 -9 6 -7 12 8 25 15 14 24 15 40 6 15 -8 18
-14 10 -23 -6 -7 -8 -16 -4 -19 3 -4 -3 -7 -13 -7 -11 0 -25 -5 -30 -10 -8 -8
-20 -7 -39 2 -22 10 -29 10 -32 1 -3 -7 -20 -15 -39 -19 -28 -5 -39 -2 -55 15
-20 21 -20 21 3 22 25 1 19 4 -25 13 -15 4 -25 10 -23 15 3 5 -3 11 -14 14
-11 3 -20 1 -20 -4 0 -5 -7 -9 -15 -9 -20 0 -19 16 1 24 9 4 15 9 12 12 -3 2
-17 0 -32 -5 -22 -9 -26 -8 -26 9 0 10 5 22 10 25 6 4 8 11 5 16 -10 15 22 10
35 -6z m290 -26 c-7 -13 -19 -19 -33 -17 -22 3 -22 23 0 23 6 0 15 4 19 8 15
15 24 6 14 -14z m40 -39 c0 -5 -4 -10 -10 -10 -5 0 -10 5 -10 10 0 6 5 10 10
10 6 0 10 -4 10 -10z m23 -14 c-5 -23 -30 -42 -41 -31 -4 4 36 55 43 55 1 0 0
-11 -2 -24z m-185 -10 c-1 -15 -7 -22 -15 -19 -24 9 -16 32 14 42 2 1 2 -10 1
-23z m-228 -11 c-8 -9 -9 -15 -2 -15 6 0 14 5 17 10 5 8 11 7 20 0 8 -7 19 -9
25 -5 15 9 12 -4 -4 -21 -8 -8 -23 -14 -32 -14 -16 0 -16 1 1 14 19 13 18 14
-6 9 -17 -3 -30 1 -40 13 -9 11 -9 15 -1 10 6 -4 12 -2 12 3 0 6 5 11 11 11 8
0 8 -5 -1 -15z m505 -25 c-3 -5 -14 -6 -25 -3 -11 3 -18 9 -15 13 3 5 14 6 25
3 11 -3 18 -9 15 -13z m-158 -6 c-3 -3 -12 -4 -19 -1 -8 3 -5 6 6 6 11 1 17
-2 13 -5z m-1605 -106 c33 -19 63 -48 50 -48 -8 0 -9 -7 -3 -22 4 -13 6 -29 4
-36 -3 -8 4 -16 16 -19 12 -3 21 -10 21 -17 0 -6 20 -12 46 -14 42 -3 45 -2
35 17 -17 31 -13 38 7 11 17 -25 62 -40 62 -21 0 14 35 14 60 1 23 -13 50 -3
51 19 0 13 2 13 6 1 10 -23 26 -36 56 -44 39 -10 33 10 -8 25 -19 7 -35 17
-35 22 0 5 6 7 14 4 7 -3 18 -1 24 5 19 19 42 0 43 -34 1 -27 2 -29 6 -8 7 38
21 47 39 24 14 -17 15 -17 10 -1 -4 13 -2 16 7 10 6 -4 20 -6 30 -5 9 2 17 -2
17 -8 0 -7 6 -10 14 -7 8 3 17 3 20 -1 4 -3 12 -7 19 -8 43 -7 68 -23 60 -38
-3 -4 1 -12 8 -17 12 -7 12 -9 0 -9 -7 0 -11 -6 -7 -15 3 -8 -1 -21 -10 -29
-14 -15 -15 -36 -2 -46 4 -4 1 -16 -8 -28 -12 -17 -25 -22 -61 -22 -33 0 -59
-8 -92 -28 -31 -19 -62 -29 -96 -31 -27 -1 -70 -4 -95 -6 -25 -2 -52 -4 -60
-4 -13 -1 -13 -2 0 -11 9 -6 11 -10 3 -10 -7 0 -10 -7 -7 -15 8 -20 -41 -20
-80 0 -16 9 -31 13 -34 10 -3 -3 -11 0 -18 6 -8 6 -20 9 -29 6 -8 -4 -21 0
-28 8 -8 7 -19 10 -25 6 -13 -8 -146 -6 -237 4 -71 7 -105 1 -105 -20 0 -17
-43 -32 -48 -16 -2 6 -10 11 -18 11 -8 0 -11 6 -8 15 4 8 1 15 -5 15 -6 0 -11
3 -11 8 0 4 17 8 37 10 36 2 53 15 53 40 0 6 -7 12 -16 12 -25 0 -46 27 -39
51 5 15 4 19 -4 15 -6 -4 -11 -3 -11 3 0 5 6 12 13 14 7 4 3 8 -10 12 -13 4
-23 15 -23 25 0 10 -7 20 -15 24 -8 3 -15 13 -15 21 0 9 5 13 10 10 6 -3 10 1
10 9 0 19 16 20 76 5 37 -10 45 -15 41 -30 -3 -12 0 -19 10 -19 8 0 13 6 10
13 -3 9 13 12 69 11 41 -1 74 3 74 7 0 5 3 8 8 7 14 -3 42 14 36 23 -3 5 -1 9
5 9 9 0 23 30 18 41 -1 3 6 14 16 23 10 10 17 28 16 40 -2 30 0 46 6 46 3 0
15 -6 27 -12z m248 -8 c0 -5 -4 -10 -10 -10 -5 0 -10 5 -10 10 0 6 5 10 10 10
6 0 10 -4 10 -10z m885 -18 c-6 -4 -10 -22 -10 -40 0 -28 3 -32 20 -28 20 5
20 5 1 -9 -11 -8 -26 -15 -34 -15 -11 0 -10 -3 2 -16 20 -19 20 -21 -2 -26
-10 -3 -19 0 -19 6 0 6 -2 16 -3 21 -5 20 0 36 10 30 6 -3 10 1 10 9 0 8 -5
18 -10 21 -6 4 -7 12 -3 18 4 7 8 15 9 20 1 4 2 9 3 12 0 3 9 5 19 5 9 0 13
-3 7 -8z m35 -16 c0 -2 -7 -7 -16 -10 -8 -3 -12 -2 -9 4 6 10 25 14 25 6z
m-1753 -141 c2 -6 -5 -15 -16 -22 -16 -10 -18 -9 -14 6 4 15 0 18 -24 15 -27
-4 -27 -3 -3 5 30 11 52 9 57 -4z m137 -10 c-4 -8 -11 -12 -17 -8 -8 5 -7 8 1
11 7 2 9 9 6 14 -4 7 -2 8 4 4 6 -4 9 -13 6 -21z m-89 -25 c-2 -4 -16 -5 -30
-3 -13 3 -23 9 -20 13 2 4 16 5 30 3 13 -3 23 -9 20 -13z m-408 -18 c-23 -5
-47 4 -47 17 0 6 13 5 33 -2 23 -8 27 -12 14 -15z m1954 -20 c-7 -2 -18 1 -23
6 -8 8 -4 9 13 5 13 -4 18 -8 10 -11z m-1576 -38 c16 -14 31 -20 33 -15 5 16
22 13 22 -3 0 -16 -27 -29 -32 -15 -2 5 -17 12 -33 15 -30 5 -48 22 -39 36 8
13 17 10 49 -18z m85 -124 c0 -5 -2 -10 -4 -10 -3 0 -8 5 -11 10 -3 6 -1 10 4
10 6 0 11 -4 11 -10z m237 -16 c-3 -3 -12 -4 -19 -1 -8 3 -5 6 6 6 11 1 17 -2
13 -5z m1215 -51 c-6 -2 -10 -9 -6 -14 3 -5 14 -5 26 2 26 14 88 3 88 -16 0
-8 -2 -15 -4 -15 -2 0 -12 -3 -22 -7 -13 -5 -15 -3 -9 8 6 11 5 12 -6 2 -16
-15 -33 -17 -24 -3 3 6 -1 10 -10 10 -9 0 -13 -5 -9 -11 4 -8 1 -8 -12 -2 -22
10 -41 9 -66 -1 -9 -4 -25 -3 -35 3 -16 9 -16 10 5 11 12 0 30 9 39 20 10 11
27 20 38 19 11 0 14 -3 7 -6z m-1223 -53 c0 -10 -3 -8 -9 5 -12 27 -12 43 0
25 5 -8 9 -22 9 -30z m1421 20 c0 -5 -7 -7 -15 -4 -8 4 -15 8 -15 10 0 2 7 4
15 4 8 0 15 -4 15 -10z m480 0 c-8 -5 -19 -10 -25 -10 -5 0 -3 5 5 10 8 5 20
10 25 10 6 0 3 -5 -5 -10z m80 1 c0 -9 -24 -21 -43 -21 -6 0 -2 7 9 15 22 17
34 19 34 6z m-2209 -24 c-10 -9 -11 -8 -5 6 3 10 9 15 12 12 3 -3 0 -11 -7
-18z m909 -3 c0 -8 -4 -12 -10 -9 -5 3 -10 10 -10 16 0 5 5 9 10 9 6 0 10 -7
10 -16z"/>
<path d="M9430 2510 l-25 -8 28 -1 c15 -1 27 4 27 9 0 6 -1 10 -2 9 -2 -1 -14
-5 -28 -9z"/>
<path d="M9380 2450 c0 -5 7 -7 15 -4 8 4 15 8 15 10 0 2 -7 4 -15 4 -8 0 -15
-4 -15 -10z"/>
<path d="M8140 2011 c0 -5 5 -13 10 -16 6 -3 10 -2 10 4 0 5 -4 13 -10 16 -5
3 -10 2 -10 -4z"/>
<path d="M8200 2010 c0 -5 5 -10 10 -10 6 0 10 5 10 10 0 6 -4 10 -10 10 -5 0
-10 -4 -10 -10z"/>
<path d="M7777 1959 c7 -7 15 -10 18 -7 3 3 -2 9 -12 12 -14 6 -15 5 -6 -5z"/>
<path d="M7813 1875 c0 -25 20 -34 32 -15 3 6 18 10 33 10 24 1 22 3 -13 15
-52 19 -52 19 -52 -10z"/>
<path d="M7871 1847 c0 -7 4 -21 9 -32 7 -15 9 -16 9 -4 1 12 8 15 27 11 36
-7 24 13 -16 26 -22 8 -30 8 -29 -1z"/>
<path d="M7810 1825 c7 -9 15 -13 17 -11 7 7 -7 26 -19 26 -6 0 -6 -6 2 -15z"/>
<path d="M7965 1822 c6 -5 23 -12 38 -16 21 -5 28 -3 25 6 -3 7 -20 14 -39 16
-21 2 -30 0 -24 -6z"/>
<path d="M8066 1815 c-9 -25 -9 -25 24 -25 20 0 30 5 30 15 0 8 -4 15 -9 15
-5 0 -16 3 -24 6 -8 3 -17 -2 -21 -11z"/>
<path d="M8925 2760 c-8 -13 5 -13 25 0 13 8 13 10 -2 10 -9 0 -20 -4 -23 -10z"/>
<path d="M4590 2738 c0 -10 33 -12 156 -10 86 2 155 4 153 6 -2 2 -73 6 -156
10 -122 6 -153 4 -153 -6z"/>
<path d="M4958 2723 c12 -2 30 -2 40 0 9 3 -1 5 -23 4 -22 0 -30 -2 -17 -4z"/>
<path d="M9225 2720 c3 -5 11 -10 16 -10 6 0 7 5 4 10 -3 6 -11 10 -16 10 -6
0 -7 -4 -4 -10z"/>
<path d="M9261 2701 c-11 -7 -11 -9 0 -13 20 -7 7 -18 -24 -20 -14 -1 -24 -5
-22 -8 2 -4 18 -5 35 -2 24 3 30 9 30 28 0 27 0 27 -19 15z"/>
<path d="M9510 2670 c-18 -12 -2 -12 25 0 13 6 15 9 5 9 -8 0 -22 -4 -30 -9z"/>
<path d="M9770 2660 c18 -12 40 -13 40 -2 0 4 -12 9 -27 10 -22 1 -24 0 -13
-8z"/>
<path d="M9008 2653 c6 -2 18 -2 25 0 6 3 1 5 -13 5 -14 0 -19 -2 -12 -5z"/>
<path d="M4547 2438 c-11 -283 -11 -292 18 -326 20 -24 25 -41 25 -85 l0 -55
50 -32 c41 -26 64 -33 128 -39 82 -7 162 3 162 20 0 6 21 9 48 7 40 -3 47 -6
50 -25 3 -20 9 -23 45 -23 55 0 111 28 115 58 2 12 8 20 13 17 5 -4 9 -1 9 5
0 6 15 9 38 6 20 -2 29 -1 20 1 -10 2 -18 8 -18 13 0 5 -7 7 -15 4 -8 -4 -31
-3 -50 0 l-35 7 0 59 c0 47 3 60 15 60 23 0 8 51 -24 77 -24 20 -28 20 -49 6
-27 -17 -41 -11 -23 11 9 11 8 15 -5 20 -17 7 -34 -8 -34 -31 0 -16 -43 -29
-48 -14 -2 7 -9 8 -20 2 -24 -13 -95 -8 -100 7 -2 6 4 12 15 12 15 0 16 2 3
10 -28 18 -40 12 -30 -15 5 -14 6 -34 1 -47 -8 -21 -10 -18 -20 22 -18 67 -18
68 -42 80 -12 7 -19 8 -15 2 3 -6 3 -12 -1 -15 -5 -2 -2 -2 5 -1 22 6 13 -6
-12 -16 -22 -8 -24 -13 -16 -40 6 -22 5 -30 -5 -30 -13 0 -24 41 -70 264 -24
117 -48 166 -81 166 -6 0 -14 7 -18 15 -16 41 -23 0 -29 -157z m72 38 c-4 -5
-1 -19 7 -32 21 -31 43 -116 50 -194 3 -36 8 -68 11 -72 2 -5 -6 -8 -19 -8
-21 0 -24 4 -22 38 2 43 -14 71 -28 50 -7 -10 -9 -10 -5 2 2 8 -4 32 -14 52
-23 45 -28 203 -7 210 16 6 38 -33 27 -46z m401 -426 l0 -60 -60 0 -60 0 0 30
c0 17 -4 30 -9 30 -10 0 -22 40 -15 52 3 4 36 8 75 8 l69 0 0 -60z m-227 3 c3
-21 8 -47 13 -57 5 -14 4 -17 -4 -12 -7 4 -12 15 -12 24 0 9 -9 28 -20 42 -25
31 -25 40 -1 40 14 0 20 -9 24 -37z m345 12 c2 -25 -11 -34 -22 -16 -7 11 3
41 13 41 4 0 8 -11 9 -25z m-8 -154 c0 -10 -25 -21 -48 -21 -12 1 -10 5 8 15
29 17 40 18 40 6z"/>
<path d="M8880 2595 c0 -9 6 -12 15 -9 8 4 12 10 9 15 -8 14 -24 10 -24 -6z"/>
<path d="M6078 2513 c7 -3 16 -2 19 1 4 3 -2 6 -13 5 -11 0 -14 -3 -6 -6z"/>
<path d="M4670 2502 c0 -8 9 -25 20 -39 26 -33 26 -23 0 19 -11 18 -20 27 -20
20z"/>
<path d="M4935 2500 c-26 -3 -34 -7 -24 -12 18 -7 89 5 74 13 -6 3 -28 2 -50
-1z"/>
<path d="M4750 2491 c0 -6 21 -8 48 -5 34 4 43 2 32 -5 -11 -8 -6 -11 25 -10
l40 1 -30 13 c-34 16 -115 20 -115 6z"/>
<path d="M8574 2484 c-17 -14 -17 -15 -1 -10 10 3 23 6 28 6 5 0 9 5 9 10 0
14 -13 12 -36 -6z"/>
<path d="M8295 2480 c-4 -6 11 -10 36 -10 48 0 49 4 2 13 -18 4 -35 2 -38 -3z"/>
<path d="M8425 2480 c-3 -5 -2 -10 4 -10 5 0 13 5 16 10 3 6 2 10 -4 10 -5 0
-13 -4 -16 -10z"/>
<path d="M8478 2478 c-19 -5 -17 -6 12 -7 19 0 41 3 49 8 16 11 -23 10 -61 -1z"/>
<path d="M8743 2474 c3 -4 -1 -14 -10 -23 -16 -15 -15 -16 6 -19 13 -2 27 2
31 8 6 9 9 9 15 0 4 -7 2 -16 -5 -20 -8 -5 -7 -9 4 -13 10 -4 16 -1 16 8 0 7
5 17 12 21 7 4 8 3 4 -4 -4 -7 -2 -12 3 -12 6 0 11 5 11 10 0 6 15 10 34 10
19 0 36 3 39 8 2 4 2 2 1 -5 -4 -17 9 -23 21 -9 20 23 14 34 -20 38 -34 4 -47
-5 -22 -15 7 -3 5 -6 -5 -6 -10 -1 -18 4 -18 9 0 14 -26 13 -51 -2 -17 -11
-22 -10 -33 5 -7 9 -19 17 -26 17 -7 0 -11 -3 -7 -6z"/>
<path d="M8120 2460 c20 -13 50 -13 50 0 0 6 -15 10 -32 10 -25 0 -29 -3 -18
-10z"/>
<path d="M8180 2455 c0 -10 10 -15 31 -15 20 0 28 4 23 12 -5 8 -2 9 10 5 10
-4 22 -7 27 -7 5 0 9 -5 9 -11 0 -7 -32 -9 -100 -6 -55 2 -97 0 -94 -5 3 -4 9
-6 14 -3 5 3 11 1 15 -4 10 -17 93 -24 141 -12 36 9 49 9 62 -1 13 -11 14 -11
7 2 -26 45 -50 60 -97 60 -36 0 -48 -4 -48 -15z"/>
<path d="M8595 2460 c-3 -5 -1 -10 4 -10 6 0 11 5 11 10 0 6 -2 10 -4 10 -3 0
-8 -4 -11 -10z"/>
<path d="M8680 2460 c-12 -8 -11 -10 7 -10 12 0 25 5 28 10 8 13 -15 13 -35 0z"/>
<path d="M8028 2443 c7 -3 16 -2 19 1 4 3 -2 6 -13 5 -11 0 -14 -3 -6 -6z"/>
<path d="M8458 2423 c7 -3 16 -2 19 1 4 3 -2 6 -13 5 -11 0 -14 -3 -6 -6z"/>
<path d="M6716 2393 c-6 -14 -5 -15 5 -6 7 7 10 15 7 18 -3 3 -9 -2 -12 -12z"/>
<path d="M6806 2395 c4 -8 10 -15 16 -15 5 0 7 4 4 9 -4 5 0 12 6 14 7 3 3 6
-9 6 -16 1 -21 -3 -17 -14z"/>
<path d="M8730 2400 c0 -5 4 -10 9 -10 6 0 13 5 16 10 3 6 -1 10 -9 10 -9 0
-16 -4 -16 -10z"/>
<path d="M5980 2380 c14 -5 19 -8 12 -9 -10 -1 -10 -5 2 -17 18 -17 52 -14 49
4 -2 7 4 12 13 12 8 0 12 -5 8 -11 -5 -8 -1 -8 14 0 14 7 23 8 27 1 10 -16 82
-12 89 5 4 13 2 13 -14 5 -29 -16 -63 -13 -56 5 4 10 -1 15 -14 15 -11 0 -20
-5 -20 -11 0 -5 -5 -7 -12 -3 -7 4 -37 8 -67 10 -39 1 -49 -1 -31 -6z"/>
<path d="M6380 2370 c0 -5 6 -10 14 -10 8 0 18 5 21 10 3 6 -3 10 -14 10 -12
0 -21 -4 -21 -10z"/>
<path d="M6458 2373 c6 -2 18 -2 25 0 6 3 1 5 -13 5 -14 0 -19 -2 -12 -5z"/>
<path d="M6647 2369 c7 -7 15 -10 18 -7 3 3 -2 9 -12 12 -14 6 -15 5 -6 -5z"/>
<path d="M6690 2370 c0 -4 9 -10 20 -13 11 -3 20 -2 20 3 0 4 -9 10 -20 13
-11 3 -20 2 -20 -3z"/>
<path d="M6848 2373 c6 -2 18 -2 25 0 6 3 1 5 -13 5 -14 0 -19 -2 -12 -5z"/>
<path d="M3440 2345 c0 -14 5 -25 10 -25 6 0 10 6 10 13 0 8 15 11 51 8 36 -2
54 1 60 10 6 10 9 11 9 2 0 -9 16 -13 45 -13 33 0 45 4 45 15 0 12 -19 15
-115 15 l-115 0 0 -25z m213 8 c-7 -2 -19 -2 -25 0 -7 3 -2 5 12 5 14 0 19 -2
13 -5z"/>
<path d="M4730 2361 c0 -5 5 -13 10 -16 6 -3 10 -2 10 4 0 5 -4 13 -10 16 -5
3 -10 2 -10 -4z"/>
<path d="M4973 2363 c9 -2 23 -2 30 0 6 3 -1 5 -18 5 -16 0 -22 -2 -12 -5z"/>
<path d="M6420 2348 c0 -5 15 -8 33 -9 96 -3 123 -5 138 -12 10 -5 16 -3 16 7
0 8 -6 12 -14 9 -7 -3 -19 0 -27 6 -15 13 -146 11 -146 -1z"/>
<path d="M4872 2336 c-34 -19 -38 -26 -11 -20 13 4 54 6 92 5 69 -2 91 12 36
23 -46 9 -91 6 -117 -8z"/>
<path d="M6340 2340 c0 -5 -13 -8 -29 -6 -17 2 -32 -2 -34 -8 -3 -7 11 -11 38
-11 35 0 41 3 37 18 -5 18 -12 23 -12 7z"/>
<path d="M6658 2343 c6 -2 18 -2 25 0 6 3 1 5 -13 5 -14 0 -19 -2 -12 -5z"/>
<path d="M6250 2329 c0 -5 -4 -7 -10 -4 -5 3 -10 2 -10 -4 0 -19 16 -19 28 0
7 11 8 19 2 19 -5 0 -10 -5 -10 -11z"/>
<path d="M3518 2323 c28 -2 76 -2 105 0 28 2 5 3 -53 3 -58 0 -81 -1 -52 -3z"/>
<path d="M6988 2313 c6 -2 18 -2 25 0 6 3 1 5 -13 5 -14 0 -19 -2 -12 -5z"/>
<path d="M3498 2303 c34 -2 88 -2 120 0 31 2 3 3 -63 3 -66 0 -92 -1 -57 -3z"/>
<path d="M5545 2301 c-11 -5 -26 -6 -33 -3 -7 2 -19 -1 -27 -8 -9 -7 -27 -10
-45 -6 -34 6 -83 -12 -77 -28 2 -6 12 -10 21 -9 10 0 15 -4 13 -11 -4 -9 10
-13 45 -15 28 -1 55 -4 59 -7 5 -3 9 0 9 5 0 6 7 11 15 11 8 0 15 -7 15 -17 0
-14 2 -14 20 2 14 13 19 14 15 4 -4 -12 11 -13 102 -8 60 4 121 12 137 18 23
9 31 9 38 -1 5 -9 8 -7 8 7 0 13 3 16 10 9 12 -12 100 5 100 19 0 5 -29 7 -65
5 -42 -4 -66 -1 -68 6 -4 12 -236 15 -279 3 -18 -4 -28 -4 -28 3 0 5 9 10 19
10 11 0 23 5 26 10 7 12 -2 12 -30 1z"/>
<path d="M7558 2293 c7 -3 16 -2 19 1 4 3 -2 6 -13 5 -11 0 -14 -3 -6 -6z"/>
<path d="M3498 2283 c34 -2 88 -2 120 0 31 2 3 3 -63 3 -66 0 -92 -1 -57 -3z"/>
<path d="M4746 2282 c-2 -4 4 -8 14 -8 10 0 16 4 14 8 -3 4 -9 8 -14 8 -5 0
-11 -4 -14 -8z"/>
<path d="M6294 2268 c-3 -4 22 -6 55 -6 33 1 58 5 55 10 -6 9 -104 6 -110 -4z"/>
<path d="M3467 2263 c18 -2 50 -2 70 0 21 2 7 4 -32 4 -38 0 -55 -2 -38 -4z"/>
<path d="M3590 2260 c19 -13 30 -13 30 0 0 6 -10 10 -22 10 -19 0 -20 -2 -8
-10z"/>
<path d="M3630 2260 c0 -5 7 -10 15 -10 8 0 15 5 15 10 0 6 -7 10 -15 10 -8 0
-15 -4 -15 -10z"/>
<path d="M7365 2260 c4 -6 11 -8 16 -5 14 9 11 15 -7 15 -8 0 -12 -5 -9 -10z"/>
<path d="M6178 2253 c7 -3 16 -2 19 1 4 3 -2 6 -13 5 -11 0 -14 -3 -6 -6z"/>
<path d="M3458 2243 c12 -2 30 -2 40 0 9 3 -1 5 -23 4 -22 0 -30 -2 -17 -4z"/>
<path d="M3540 2240 c8 -5 20 -10 25 -10 6 0 3 5 -5 10 -8 5 -19 10 -25 10 -5
0 -3 -5 5 -10z"/>
<path d="M6983 2243 c4 -3 21 -6 38 -5 23 0 29 -3 25 -14 -3 -8 1 -14 9 -14 9
0 12 6 9 15 -7 17 21 21 31 5 7 -12 25 -4 25 11 0 5 -32 9 -72 9 -39 0 -68 -3
-65 -7z"/>
<path d="M3588 2233 c6 -2 18 -2 25 0 6 3 1 5 -13 5 -14 0 -19 -2 -12 -5z"/>
<path d="M3638 2233 c6 -2 18 -2 25 0 6 3 1 5 -13 5 -14 0 -19 -2 -12 -5z"/>
<path d="M5270 2228 c0 -10 39 -9 65 2 14 5 8 7 -22 6 -24 0 -43 -4 -43 -8z"/>
<path d="M3440 2212 c0 -17 6 -18 44 -12 24 4 53 5 65 3 12 -1 21 2 21 8 0 7
-12 9 -30 7 -16 -3 -30 -1 -30 4 0 4 -16 8 -35 8 -27 0 -35 -4 -35 -18z m37 2
c-3 -3 -12 -4 -19 -1 -8 3 -5 6 6 6 11 1 17 -2 13 -5z"/>
<path d="M4920 2220 l-25 -8 27 -1 c15 -1 30 4 33 9 7 11 0 11 -35 0z"/>
<path d="M3580 2211 c0 -5 9 -7 20 -4 11 3 20 7 20 9 0 2 -9 4 -20 4 -11 0
-20 -4 -20 -9z"/>
<path d="M3638 2213 c7 -3 16 -2 19 1 4 3 -2 6 -13 5 -11 0 -14 -3 -6 -6z"/>
<path d="M5740 2185 c-16 -19 -7 -30 14 -18 9 5 12 13 7 21 -6 10 -11 10 -21
-3z"/>
<path d="M3420 2180 c0 -5 5 -10 11 -10 5 0 7 5 4 10 -3 6 -8 10 -11 10 -2 0
-4 -4 -4 -10z"/>
<path d="M5195 2180 c4 -6 11 -8 16 -5 14 9 11 15 -7 15 -8 0 -12 -5 -9 -10z"/>
<path d="M5258 2183 c7 -3 16 -2 19 1 4 3 -2 6 -13 5 -11 0 -14 -3 -6 -6z"/>
<path d="M3360 2149 c0 -5 9 -9 20 -9 11 0 20 2 20 4 0 2 -9 6 -20 9 -11 3
-20 1 -20 -4z"/>
<path d="M3560 2150 c-11 -7 -7 -10 18 -10 44 0 137 -34 186 -67 23 -16 55
-31 71 -34 20 -4 4 -7 -45 -8 -41 -1 -93 -5 -115 -10 l-40 -7 65 -13 c74 -15
167 -48 176 -62 3 -6 -8 -3 -26 6 -30 16 -32 16 -53 -7 -12 -13 -37 -30 -55
-37 -43 -18 -25 -31 43 -31 33 0 61 7 84 21 33 20 35 20 48 3 23 -31 16 -73
-18 -105 -17 -16 -42 -32 -55 -35 -46 -12 -24 -24 41 -24 103 0 155 38 155
113 0 68 -46 128 -130 167 -25 12 -35 19 -23 17 21 -5 22 -4 9 22 -18 33 -62
74 -103 95 -36 18 -207 23 -233 6z"/>
<path d="M5188 2153 c7 -3 16 -2 19 1 4 3 -2 6 -13 5 -11 0 -14 -3 -6 -6z"/>
<path d="M3440 2140 c0 -5 5 -10 10 -10 6 0 10 5 10 10 0 6 -4 10 -10 10 -5 0
-10 -4 -10 -10z"/>
<path d="M3518 2143 c7 -3 16 -2 19 1 4 3 -2 6 -13 5 -11 0 -14 -3 -6 -6z"/>
<path d="M3884 2102 c9 -11 42 -24 74 -31 70 -16 180 -67 247 -116 l50 -36
-54 50 c-63 58 -164 114 -247 136 -80 21 -92 20 -70 -3z"/>
<path d="M3035 2077 c-38 -92 2 -289 43 -209 28 52 19 199 -13 231 -13 13 -16
10 -30 -22z m35 -89 c0 -13 -23 -5 -28 10 -2 7 2 10 12 6 9 -3 16 -11 16 -16z"/>
<path d="M6990 2060 c-9 -16 -8 -20 5 -20 10 0 13 -4 8 -12 -13 -22 -12 -38 3
-38 8 0 14 -5 14 -11 0 -5 5 -7 12 -3 8 5 9 2 5 -9 -9 -25 7 -21 34 8 13 13
30 25 37 25 6 0 12 6 12 14 0 9 -7 12 -19 9 -14 -3 -19 0 -18 14 1 12 -5 18
-18 18 -11 0 -26 6 -33 13 -19 17 -30 15 -42 -8z"/>
<path d="M5194 2058 c-3 -4 6 -8 20 -8 14 0 26 4 26 8 0 4 -9 8 -21 8 -11 0
-23 -4 -25 -8z"/>
<path d="M6860 2055 c7 -8 17 -15 22 -15 6 0 5 7 -2 15 -7 8 -17 15 -22 15 -6
0 -5 -7 2 -15z"/>
<path d="M6680 2052 c0 -6 5 -14 10 -17 6 -3 10 -13 10 -21 0 -8 -4 -12 -10
-9 -5 3 -10 -1 -10 -9 0 -9 -4 -16 -9 -16 -18 0 -41 12 -37 19 3 4 -11 5 -30
3 -33 -4 -47 -25 -21 -35 9 -4 9 -8 1 -14 -18 -13 -28 -54 -13 -51 7 2 18 -8
25 -20 7 -15 14 -20 18 -13 4 6 20 11 37 11 16 0 28 3 27 8 -3 13 31 82 40 82
11 0 22 -24 22 -48 0 -8 -10 -26 -22 -39 l-22 -24 22 -6 c12 -3 22 -9 22 -14
0 -5 11 -9 25 -9 14 0 25 5 25 10 0 7 6 7 20 0 31 -17 100 -9 100 12 0 23 -18
32 -35 18 -8 -7 -20 -10 -27 -7 -8 3 -5 6 6 6 19 1 19 2 -1 20 -11 10 -29 21
-39 24 -13 3 -10 5 11 7 17 1 24 4 18 7 -7 2 -13 13 -13 23 0 16 6 18 35 13
44 -7 45 7 3 26 -17 8 -40 23 -50 33 -21 21 -40 27 -100 35 -23 3 -38 1 -38
-5z m64 -180 c3 -5 -1 -9 -9 -9 -8 0 -12 4 -9 9 3 4 7 8 9 8 2 0 6 -4 9 -8z"/>
<path d="M7484 2051 c3 -5 15 -7 26 -4 28 7 25 13 -6 13 -14 0 -23 -4 -20 -9z"/>
<path d="M3600 2010 c0 -5 5 -10 11 -10 5 0 7 5 4 10 -3 6 -8 10 -11 10 -2 0
-4 -4 -4 -10z"/>
<path d="M3543 2003 c9 -2 25 -2 35 0 9 3 1 5 -18 5 -19 0 -27 -2 -17 -5z"/>
<path d="M5312 1979 c2 -6 7 -10 11 -10 4 1 16 1 27 1 32 0 23 15 -11 17 -17
1 -29 -2 -27 -8z"/>
<path d="M3352 1950 c0 -14 2 -19 5 -12 2 6 2 18 0 25 -3 6 -5 1 -5 -13z"/>
<path d="M6517 1939 c7 -7 15 -10 18 -7 3 3 -2 9 -12 12 -14 6 -15 5 -6 -5z"/>
<path d="M5240 1936 c0 -2 7 -6 15 -10 8 -3 15 -1 15 4 0 6 -7 10 -15 10 -8 0
-15 -2 -15 -4z"/>
<path d="M6420 1930 c-16 -4 -24 -12 -22 -23 2 -9 -2 -17 -8 -17 -5 0 -10 8
-10 18 0 14 -2 15 -10 2 -6 -10 -10 -11 -10 -2 0 6 -5 12 -11 12 -6 0 -9 -6
-6 -14 3 -8 0 -20 -8 -26 -7 -6 -15 -7 -17 -2 -1 5 -13 13 -25 16 -19 6 -23 4
-23 -16 0 -13 -4 -18 -8 -13 -11 15 -32 17 -32 3 0 -10 -2 -10 -8 0 -7 10 -15
10 -37 2 -22 -8 -30 -8 -37 2 -6 10 -8 8 -8 -4 0 -10 -4 -18 -10 -18 -21 0 -9
-16 20 -27 31 -12 41 -33 16 -33 -8 0 -22 -3 -32 -7 -11 -4 -15 -3 -10 5 3 6
2 13 -4 17 -5 3 -10 1 -10 -5 0 -6 -4 -9 -9 -6 -5 3 -11 -4 -14 -16 -4 -13 -2
-17 4 -11 5 5 23 8 38 5 22 -3 29 -9 26 -23 -5 -25 11 -34 18 -9 9 34 46 40
164 27 18 -2 42 -12 54 -23 21 -19 21 -19 37 1 10 11 26 22 37 24 43 7 77 41
41 41 -9 0 -12 9 -9 28 l4 27 -15 -25 c-8 -14 -12 -29 -9 -34 4 -5 1 -6 -5 -2
-15 9 -16 36 -2 36 6 0 10 7 10 15 0 8 7 15 15 15 28 0 15 26 -25 51 -15 9
-35 13 -50 9z m-40 -70 c0 -5 -2 -10 -4 -10 -3 0 -8 5 -11 10 -3 6 -1 10 4 10
6 0 11 -4 11 -10z"/>
<path d="M3345 1911 c-3 -5 -1 -12 5 -16 5 -3 10 1 10 9 0 18 -6 21 -15 7z"/>
<path d="M6997 1905 c3 -8 9 -12 14 -9 12 7 11 11 -5 17 -10 4 -13 1 -9 -8z"/>
<path d="M4591 1813 c1 -107 8 -136 29 -123 10 6 16 32 18 84 5 95 -2 126 -28
126 -19 0 -20 -7 -19 -87z"/>
<path d="M6920 1869 c0 -17 3 -18 21 -9 11 7 28 9 37 5 11 -4 14 -3 7 4 -5 5
-22 12 -37 15 -23 4 -28 1 -28 -15z"/>
<path d="M7015 1880 c-9 -15 5 -32 22 -26 8 3 11 1 8 -4 -3 -6 3 -10 14 -10
21 0 21 0 -1 25 -23 27 -33 31 -43 15z"/>
<path d="M5553 1863 c-25 -9 -12 -18 27 -19 22 0 40 3 40 8 0 4 -6 8 -14 8 -8
0 -20 2 -28 4 -7 3 -19 2 -25 -1z"/>
<path d="M5405 1831 c3 -6 14 -9 25 -8 24 2 15 17 -11 17 -11 0 -18 -4 -14 -9z"/>
<path d="M6540 1827 c8 -7 16 -21 18 -32 2 -19 2 -19 -12 -2 -13 16 -14 16
-20 1 -9 -23 -2 -28 29 -20 23 6 36 26 16 26 -5 0 -7 9 -4 20 4 16 0 20 -18
20 -20 -1 -22 -2 -9 -13z"/>
<path d="M6585 1830 c-3 -5 -1 -10 4 -10 6 0 11 5 11 10 0 6 -2 10 -4 10 -3 0
-8 -4 -11 -10z"/>
<path d="M3545 1808 c-49 -4 -95 -10 -101 -12 -6 -2 -9 -17 -6 -34 4 -28 7
-30 75 -40 l72 -10 -75 3 c-51 3 -66 1 -45 -4 l30 -9 -35 -2 c-32 -2 -33 -3
-10 -9 l25 -8 -25 -5 c-19 -3 -11 -7 30 -14 54 -10 54 -10 18 -15 -20 -3 -34
-1 -32 3 3 4 -4 8 -14 8 -15 0 -19 -5 -15 -18 4 -17 10 -18 56 -10 29 4 77 11
107 14 50 5 96 24 60 24 -9 0 -11 3 -5 8 6 4 10 14 10 22 0 11 -20 18 -70 27
l-70 12 75 -4 c86 -5 71 2 -50 21 l-85 13 70 -5 c39 -3 86 -7 105 -10 27 -3
31 -2 15 5 -19 9 -19 10 -1 10 31 1 9 14 -37 22 l-42 6 48 2 c26 0 47 6 47 11
0 11 3 11 -125 -2z m-7 -25 c-10 -2 -28 -2 -40 0 -13 2 -5 4 17 4 22 1 32 -1
23 -4z m80 -10 c-10 -2 -28 -2 -40 0 -13 2 -5 4 17 4 22 1 32 -1 23 -4z m-110
-30 c-10 -2 -28 -2 -40 0 -13 2 -5 4 17 4 22 1 32 -1 23 -4z m135 -40 c-7 -2
-21 -2 -30 0 -10 3 -4 5 12 5 17 0 24 -2 18 -5z m-48 -12 c53 -11 5 -12 -55
-2 -34 6 -37 9 -15 9 17 1 48 -3 70 -7z m-57 -18 c-10 -2 -26 -2 -35 0 -10 3
-2 5 17 5 19 0 27 -2 18 -5z m80 -10 c-10 -2 -28 -2 -40 0 -13 2 -5 4 17 4 22
1 32 -1 23 -4z"/>
<path d="M5044 1778 c-7 -11 22 -22 36 -13 5 3 10 1 10 -5 0 -7 7 -7 23 1 12
7 23 12 25 11 1 -1 5 -2 10 -1 4 1 24 0 45 -1 20 -1 37 3 37 8 0 12 -179 12
-186 0z"/>
<path d="M5900 1770 c0 -5 12 -10 28 -9 24 0 25 1 7 9 -27 12 -35 12 -35 0z"/>
<path d="M3717 1763 c-13 -12 -7 -90 8 -103 24 -20 37 -1 14 23 -15 16 -19 30
-15 55 5 33 4 37 -7 25z"/>
<path d="M4378 1763 c12 -2 30 -2 40 0 9 3 -1 5 -23 4 -22 0 -30 -2 -17 -4z"/>
<path d="M4283 1753 c9 -2 25 -2 35 0 9 3 1 5 -18 5 -19 0 -27 -2 -17 -5z"/>
<path d="M6020 1750 c0 -7 -7 -10 -15 -6 -8 3 -15 1 -15 -4 0 -6 11 -10 25
-10 25 0 33 14 15 25 -5 3 -10 1 -10 -5z"/>
<path d="M4198 1743 c12 -2 30 -2 40 0 9 3 -1 5 -23 4 -22 0 -30 -2 -17 -4z"/>
<path d="M4928 1743 c7 -3 16 -2 19 1 4 3 -2 6 -13 5 -11 0 -14 -3 -6 -6z"/>
<path d="M4123 1733 c9 -2 25 -2 35 0 9 3 1 5 -18 5 -19 0 -27 -2 -17 -5z"/>
<path d="M4053 1723 c9 -2 23 -2 30 0 6 3 -1 5 -18 5 -16 0 -22 -2 -12 -5z"/>
<path d="M4373 1700 c-4 -13 -11 -19 -22 -15 -36 11 -126 25 -160 24 -35 0
-35 -1 -11 -11 61 -27 223 -109 243 -123 33 -23 37 -19 37 34 0 47 -1 49 -34
55 -29 6 -33 10 -28 31 5 30 -17 35 -25 5z"/>
<path d="M3745 1700 c3 -5 8 -10 11 -10 2 0 4 5 4 10 0 6 -5 10 -11 10 -5 0
-7 -4 -4 -10z"/>
<path d="M7395 1690 c-16 -6 -14 -8 13 -12 18 -2 35 -1 37 3 7 10 -28 17 -50
9z"/>
<path d="M7210 1679 c-19 -5 -72 -9 -117 -9 -75 0 -104 -10 -70 -23 14 -6 -19
-10 -75 -9 -44 1 -64 -27 -20 -29 15 -1 45 -3 67 -5 22 -3 47 -4 55 -3 64 5
117 5 125 0 16 -9 35 -10 39 -2 3 4 28 5 58 3 29 -3 70 -5 91 -6 20 0 37 -5
37 -11 0 -5 5 -3 10 5 7 11 5 19 -8 29 -16 13 -16 13 1 8 9 -4 17 -2 17 2 0 8
-23 22 -40 25 -3 1 -10 4 -16 8 -6 4 -36 8 -67 9 -31 1 -54 6 -51 11 3 4 4 8
2 7 -2 -1 -19 -5 -38 -10z"/>
<path d="M4095 1670 c-8 -14 3 -30 21 -30 8 0 14 9 14 20 0 21 -24 28 -35 10z"/>
<path d="M7688 1668 c6 -6 18 -8 28 -6 14 3 12 5 -9 10 -19 3 -25 2 -19 -4z"/>
<path d="M6553 1663 c9 -2 23 -2 30 0 6 3 -1 5 -18 5 -16 0 -22 -2 -12 -5z"/>
<path d="M6650 1652 c0 -13 38 -23 46 -11 3 5 1 9 -5 9 -5 0 -16 3 -25 6 -9 3
-16 2 -16 -4z"/>
<path d="M6730 1640 c19 -13 30 -13 30 0 0 6 -10 10 -22 10 -19 0 -20 -2 -8
-10z"/>
<path d="M4480 1593 c0 -46 12 -73 32 -73 5 0 8 26 6 57 -2 46 -7 59 -20 61
-15 3 -18 -4 -18 -45z"/>
<path d="M6780 1631 c8 -5 18 -8 22 -5 4 3 17 0 28 -6 14 -8 20 -8 20 0 0 6 4
9 8 6 4 -2 14 -1 21 3 7 4 -16 9 -51 10 -42 1 -58 -2 -48 -8z"/>
<path d="M3420 1611 c0 -5 5 -13 10 -16 6 -3 10 -2 10 4 0 5 -4 13 -10 16 -5
3 -10 2 -10 -4z"/>
<path d="M9406 1605 c-15 -11 -12 -13 21 -17 21 -3 41 0 45 5 4 8 15 7 32 -1
16 -7 27 -8 31 -2 13 21 -103 33 -129 15z"/>
<path d="M3488 1603 c6 -2 18 -2 25 0 6 3 1 5 -13 5 -14 0 -19 -2 -12 -5z"/>
<path d="M7750 1569 c0 -5 -4 -7 -10 -4 -5 3 -10 1 -10 -4 0 -6 7 -11 15 -11
8 0 15 7 15 15 0 8 -2 15 -5 15 -3 0 -5 -5 -5 -11z"/>
<path d="M6327 1503 c-4 -3 -17 -6 -29 -7 -16 -1 -24 -8 -26 -23 -2 -13 -10
-23 -18 -23 -8 0 -14 -4 -14 -9 0 -14 82 -4 91 11 6 9 9 6 9 -10 0 -13 4 -20
10 -17 14 9 326 9 339 0 6 -3 14 1 17 10 6 13 8 14 15 3 6 -9 11 -10 17 -2 4
6 15 10 25 8 9 -1 17 2 17 7 0 5 1 12 3 17 1 4 -20 8 -48 10 -27 1 -86 6 -130
11 -44 4 -116 7 -160 5 -44 -1 -87 2 -96 7 -9 4 -19 6 -22 2z"/>
<path d="M9772 1472 c-17 -5 -15 -31 3 -48 8 -9 15 -11 15 -5 0 6 7 11 15 11
9 0 18 7 21 15 4 8 11 12 17 8 5 -3 7 -1 4 4 -7 12 -57 21 -75 15z"/>
<path d="M8779 1465 c-4 -3 -23 -6 -43 -7 -20 -1 -36 -6 -36 -12 0 -6 -5 -5
-12 2 -19 19 -37 14 -49 -12 -6 -13 -22 -29 -35 -35 -20 -9 -28 -7 -43 8 -14
14 -22 16 -30 8 -8 -8 -11 -8 -11 2 0 7 -5 9 -12 5 -6 -4 -138 -8 -292 -9
-280 -2 -281 -3 -279 -24 2 -11 -2 -21 -7 -21 -6 0 -10 10 -11 23 0 12 -3 16
-6 9 -2 -6 -9 -10 -14 -6 -5 3 -49 8 -98 10 -95 6 -110 -1 -91 -36 10 -19 20
-20 188 -20 111 0 172 -4 163 -9 -36 -23 83 -25 140 -3 15 6 29 8 33 5 3 -3
99 -9 213 -14 181 -7 209 -7 216 7 5 9 16 13 28 9 24 -8 49 11 49 37 0 27 28
34 45 12 8 -11 14 -14 15 -6 0 23 20 12 20 -11 0 -28 27 -54 54 -54 11 0 30
12 43 26 12 15 23 21 24 14 1 -7 3 -17 4 -23 1 -5 3 -13 4 -17 1 -5 5 -2 10 6
10 16 3 51 -11 51 -5 0 -6 5 -3 10 3 6 -1 10 -9 10 -9 0 -16 -6 -16 -12 0 -8
-3 -9 -8 -3 -8 11 -23 16 -69 23 -29 4 -33 8 -33 36 0 21 -3 27 -9 17 -6 -9
-10 -10 -12 -2 -3 7 -7 10 -10 6z m-91 -96 c-3 -8 -7 -3 -11 10 -4 17 -3 21 5
13 5 -5 8 -16 6 -23z"/>
<path d="M9920 1460 c-17 -4 -26 -14 -28 -30 -2 -14 0 -22 4 -17 4 4 16 0 26
-10 17 -15 18 -15 18 0 0 10 4 17 9 17 14 0 19 24 7 36 -6 5 -22 7 -36 4z"/>
<path d="M6800 1450 c-8 -5 -13 -10 -10 -11 44 -7 69 -8 89 -3 20 4 22 7 10
15 -19 12 -70 11 -89 -1z"/>
<path d="M9980 1450 c0 -5 5 -10 11 -10 5 0 7 5 4 10 -3 6 -8 10 -11 10 -2 0
-4 -4 -4 -10z"/>
<path d="M7150 1415 c0 -8 4 -15 9 -15 5 0 11 7 15 15 3 9 0 15 -9 15 -8 0
-15 -7 -15 -15z"/>
<path d="M7445 1419 c-10 -15 1 -23 20 -15 9 3 13 10 10 16 -8 13 -22 13 -30
-1z"/>
<path d="M8980 1420 c0 -5 5 -10 10 -10 6 0 10 5 10 10 0 6 -4 10 -10 10 -5 0
-10 -4 -10 -10z"/>
<path d="M9160 1422 c0 -6 -12 -8 -30 -6 -20 4 -30 1 -30 -8 0 -7 -3 -23 -6
-35 -6 -21 -3 -23 29 -23 20 0 38 4 41 9 3 4 16 6 29 4 30 -6 43 20 19 39 -11
9 -14 10 -8 1 12 -21 -5 -15 -25 9 -11 11 -19 16 -19 10z"/>
<path d="M7615 1399 c-12 -18 4 -59 23 -59 30 1 52 24 45 49 -4 17 -8 19 -14
9 -7 -10 -9 -10 -9 0 0 15 -36 16 -45 1z"/>
<path d="M9620 1397 c0 -10 -4 -16 -9 -13 -5 4 -12 0 -14 -6 -4 -10 -7 -10
-14 -1 -5 7 -21 10 -38 6 -17 -2 -69 -5 -117 -5 l-88 -1 6 -26 c12 -54 12 -54
39 -37 14 9 26 12 30 6 6 -10 21 -6 84 23 32 15 46 17 49 9 5 -15 32 -16 32
-2 0 6 7 10 15 10 8 0 15 -4 15 -8 0 -13 28 -10 33 3 3 6 -1 22 -9 36 -11 19
-13 20 -14 6z"/>
<path d="M9248 1373 c4 -22 22 -33 22 -13 0 6 9 10 20 10 11 0 20 7 20 15 0
10 -10 14 -33 13 -30 -1 -33 -4 -29 -25z"/>
<path d="M8754 1366 c-25 -19 -15 -27 20 -18 24 6 26 10 14 20 -12 9 -19 9
-34 -2z"/>
<path d="M9656 1362 c-3 -6 -4 -17 -1 -24 5 -12 13 -13 40 -4 34 11 47 26 23
26 -7 0 -23 3 -34 6 -12 3 -25 1 -28 -4z"/>
<path d="M8975 1342 c-11 -11 18 -42 40 -42 49 0 40 43 -10 46 -14 0 -27 -1
-30 -4z"/>
<path d="M4012 1285 c0 -16 2 -22 5 -12 2 9 2 23 0 30 -3 6 -5 -1 -5 -18z"/>
<path d="M7208 1283 c7 -3 16 -2 19 1 4 3 -2 6 -13 5 -11 0 -14 -3 -6 -6z"/>
<path d="M7250 1280 c-9 -6 -10 -10 -3 -10 6 0 15 5 18 10 8 12 4 12 -15 0z"/>
<path d="M7275 1270 c-7 -12 -7 -12 28 -14 26 -2 27 -1 11 11 -21 16 -31 16
-39 3z"/>
<path d="M7368 1273 c7 -3 16 -2 19 1 4 3 -2 6 -13 5 -11 0 -14 -3 -6 -6z"/>
<path d="M3347 1211 c-4 -29 -6 -56 -2 -59 11 -12 16 8 13 59 l-3 54 -8 -54z"/>
<path d="M4013 1190 c0 -25 2 -35 4 -22 2 12 2 32 0 45 -2 12 -4 2 -4 -23z"/>
<path d="M6451 1182 c-9 -17 -8 -19 9 -15 14 4 20 -1 24 -18 3 -13 14 -69 25
-124 11 -55 32 -151 46 -214 16 -68 24 -125 20 -142 -4 -16 -3 -29 2 -29 14 0
36 -94 24 -98 -25 -8 -9 -24 18 -19 15 3 33 1 38 -4 6 -6 40 -9 76 -7 36 1 63
0 61 -3 -6 -11 140 -17 159 -8 11 6 17 6 17 -1 0 -15 26 -12 44 5 8 9 31 22
51 30 41 18 44 40 19 125 -9 29 -14 63 -12 75 3 13 0 22 -9 22 -16 0 -16 3 6
-82 l19 -70 -36 -13 c-19 -6 -36 -11 -38 -10 -2 3 -47 206 -64 293 -7 33 -18
87 -25 120 -8 33 -16 78 -20 100 -7 47 -33 82 -66 89 -13 3 -104 8 -201 11
-169 6 -177 6 -187 -13z"/>
<path d="M5693 1160 c6 -23 -18 -23 -50 -1 -10 8 -6 2 9 -12 15 -14 25 -28 22
-31 -2 -3 -1 -4 3 -1 11 9 33 -17 33 -40 0 -13 8 -25 18 -29 9 -3 23 -9 30
-12 7 -3 12 2 12 15 0 14 -5 19 -15 15 -11 -5 -15 1 -15 19 0 24 -36 97 -47
97 -3 0 -3 -9 0 -20z"/>
<path d="M4320 1155 c-59 -17 -31 -17 45 0 36 8 48 13 30 13 -16 0 -50 -6 -75
-13z"/>
<path d="M3348 1120 c-12 -40 -9 -169 3 -148 5 10 9 53 7 95 -2 53 -5 70 -10
53z"/>
<path d="M4165 1119 c-38 -10 -52 -15 -30 -12 22 3 58 9 80 12 22 4 36 9 30
12 -5 4 -41 -2 -80 -12z"/>
<path d="M5610 1136 c0 -2 8 -10 18 -17 15 -13 16 -12 3 4 -13 16 -21 21 -21
13z"/>
<path d="M4017 1106 c-4 -9 -3 -15 1 -14 4 1 15 -2 25 -7 10 -4 21 -5 24 -1 3
3 -3 9 -13 13 -10 3 -22 11 -25 16 -3 5 -9 2 -12 -7z"/>
<path d="M5910 1008 c0 -10 15 -14 53 -15 83 -2 88 -3 83 -12 -3 -5 3 -19 13
-32 l19 -24 -5 27 c-4 20 0 28 17 33 43 14 2 29 -90 33 -73 4 -90 2 -90 -10z"/>
<path d="M6120 1000 c0 -5 4 -10 9 -10 6 0 13 5 16 10 3 6 -1 10 -9 10 -9 0
-16 -4 -16 -10z"/>
<path d="M6160 993 c0 -13 3 -14 12 -5 19 19 23 14 22 -23 -1 -19 0 -35 2 -35
5 0 21 41 22 54 0 5 6 13 14 17 8 6 -2 9 -29 9 -34 0 -43 -4 -43 -17z"/>
<path d="M4500 985 c-10 -12 -10 -19 -1 -28 14 -14 46 2 46 24 0 20 -30 23
-45 4z"/>
<path d="M6407 986 c-4 -9 1 -16 10 -18 8 -2 21 -20 28 -40 l13 -38 -74 -1
c-41 -1 -80 -2 -86 -3 -7 -1 -16 3 -20 9 -5 6 -8 6 -8 -2 0 -7 -8 -13 -17 -13
-15 0 -16 2 -3 10 9 6 10 10 3 10 -6 0 -14 -4 -17 -8 -3 -5 -19 -7 -37 -4 -20
3 -34 0 -40 -9 -6 -10 -9 -11 -9 -1 0 6 -11 12 -25 12 -26 0 -33 -14 -13 -26
7 -4 8 -3 4 4 -4 7 -1 12 8 12 9 0 13 -6 10 -13 -3 -8 1 -14 8 -15 21 -2 291
-21 309 -22 12 0 23 -30 45 -126 l29 -125 14 31 c10 21 12 33 5 38 -6 4 -19
40 -29 80 -9 40 -21 75 -26 77 -4 3 -6 12 -2 20 3 9 0 28 -6 43 -10 23 -18 73
-20 120 -1 17 -48 15 -54 -2z"/>
<path d="M4035 981 c-3 -5 -1 -12 5 -16 5 -3 10 1 10 9 0 18 -6 21 -15 7z"/>
<path d="M6069 881 c10 -6 10 -10 1 -13 -7 -2 -4 -10 9 -22 13 -12 21 -14 21
-7 0 20 -20 51 -33 51 -8 0 -8 -3 2 -9z"/>
<path d="M3475 860 c3 -5 8 -10 11 -10 2 0 4 5 4 10 0 6 -5 10 -11 10 -5 0 -7
-4 -4 -10z"/>
<path d="M5588 749 c-9 -57 -15 -105 -13 -108 3 -2 25 4 50 13 49 19 60 17 68
-14 4 -17 3 -19 -8 -10 -7 6 -25 8 -39 4 -21 -5 -25 -10 -20 -28 3 -11 10 -25
15 -31 5 -5 9 -21 9 -36 0 -15 3 -34 6 -43 7 -18 34 -22 34 -5 0 5 -4 7 -10 4
-17 -10 -12 91 5 105 12 10 16 9 21 -4 6 -16 44 -22 57 -10 7 8 -28 81 -53
109 -10 12 -20 45 -24 79 -4 33 -8 62 -10 63 -2 2 -19 6 -38 9 l-34 6 -16
-103z"/>
<path d="M6090 800 c0 -5 5 -10 10 -10 6 0 10 5 10 10 0 6 -4 10 -10 10 -5 0
-10 -4 -10 -10z"/>
<path d="M6106 748 c11 -50 12 -108 3 -108 -5 0 -9 -8 -8 -17 0 -11 3 -13 6
-5 5 13 24 17 22 5 -3 -14 25 -73 34 -73 4 0 5 -4 2 -10 -3 -5 -1 -10 5 -10 6
0 9 8 6 18 -2 9 -17 65 -32 125 -15 59 -31 107 -36 107 -6 0 -6 -14 -2 -32z"/>
<path d="M6541 755 c1 -19 18 -51 18 -35 0 8 -4 22 -9 30 -5 8 -9 11 -9 5z"/>
<path d="M3015 710 c-3 -5 1 -10 9 -10 9 0 16 5 16 10 0 6 -4 10 -9 10 -6 0
-13 -4 -16 -10z"/>
<path d="M3328 713 c6 -2 18 -2 25 0 6 3 1 5 -13 5 -14 0 -19 -2 -12 -5z"/>
<path d="M6400 609 c0 -5 11 -9 25 -9 14 0 25 2 25 4 0 2 -11 6 -25 8 -14 3
-25 1 -25 -3z"/>
<path d="M7130 610 c-13 -9 -13 -10 0 -10 11 0 12 -2 3 -8 -8 -5 -9 -12 -2
-22 8 -13 12 -12 24 4 11 14 12 22 4 27 -8 4 -7 8 2 12 11 4 11 6 -1 6 -8 0
-22 -4 -30 -9z"/>
<path d="M7207 614 c-4 -4 -7 -13 -7 -20 0 -10 6 -11 25 -4 14 5 38 7 54 4 16
-3 37 -1 48 5 16 9 16 10 1 11 -9 0 -24 3 -34 7 -13 5 -15 3 -9 -7 6 -10 4
-12 -11 -5 -32 13 -59 17 -67 9z"/>
<path d="M5475 575 c-16 -8 -23 -14 -14 -15 8 0 24 7 35 15 23 18 18 18 -21 0z"/>
<path d="M6576 575 c-3 -8 -1 -15 4 -15 6 0 10 7 10 15 0 8 -2 15 -4 15 -2 0
-6 -7 -10 -15z"/>
<path d="M4940 548 c0 -21 2 -38 4 -38 9 0 12 50 5 62 -6 8 -9 -1 -9 -24z"/>
<path d="M7342 571 c-11 -7 -11 -9 2 -14 10 -4 16 -1 16 8 0 17 -1 17 -18 6z"/>
<path d="M5138 563 c7 -3 16 -2 19 1 4 3 -2 6 -13 5 -11 0 -14 -3 -6 -6z"/>
<path d="M8806 540 c-27 -9 -7 -18 24 -10 18 4 21 8 10 12 -8 3 -24 2 -34 -2z"/>
<path d="M4440 536 c0 -2 7 -7 16 -10 8 -3 12 -2 9 4 -6 10 -25 14 -25 6z"/>
<path d="M4726 533 c-11 -11 -6 -23 9 -23 8 0 15 4 15 9 0 13 -16 22 -24 14z"/>
<path d="M4760 526 c0 -2 7 -7 16 -10 8 -3 12 -2 9 4 -6 10 -25 14 -25 6z"/>
<path d="M5150 505 c0 -5 5 -17 10 -25 5 -8 10 -10 10 -5 0 6 -5 17 -10 25 -5
8 -10 11 -10 5z"/>
<path d="M5728 503 c7 -3 16 -2 19 1 4 3 -2 6 -13 5 -11 0 -14 -3 -6 -6z"/>
<path d="M8538 501 c12 -7 62 -4 62 5 0 2 -17 4 -37 4 -24 0 -33 -3 -25 -9z"/>
<path d="M5016 492 c-2 -4 -1 -14 4 -22 8 -13 12 -13 32 -1 21 13 22 13 10 -2
-11 -13 -10 -17 6 -26 16 -8 21 -7 26 5 3 8 2 12 -4 9 -6 -3 -7 1 -4 9 3 9 1
16 -5 16 -19 0 -25 2 -43 11 -9 5 -19 5 -22 1z"/>
<path d="M5770 490 c19 -12 47 -13 54 -2 3 5 -11 9 -32 10 -27 1 -33 -1 -22
-8z"/>
<path d="M6570 480 c0 -11 5 -20 10 -20 6 0 10 9 10 20 0 11 -4 20 -10 20 -5
0 -10 -9 -10 -20z"/>
<path d="M5300 476 c0 -8 -2 -20 -3 -28 -2 -7 -2 -10 0 -6 2 4 11 4 19 1 8 -3
14 0 14 7 0 6 -5 8 -12 4 -8 -5 -9 -2 -5 9 3 9 2 19 -3 22 -6 4 -10 0 -10 -9z"/>
<path d="M5738 478 c5 -5 16 -8 23 -6 8 3 3 7 -10 11 -17 4 -21 3 -13 -5z"/>
<path d="M6807 448 c9 -50 23 -70 21 -30 -1 19 -6 36 -11 39 -5 3 -3 9 4 14
11 7 10 9 -3 9 -14 0 -16 -6 -11 -32z"/>
<path d="M4662 458 c-16 -16 -15 -25 4 -32 15 -6 15 -4 3 11 -12 16 -12 17 2
6 9 -7 20 -9 25 -5 4 4 2 -1 -5 -10 -7 -10 -10 -26 -6 -38 10 -31 21 -16 23
30 1 28 -2 39 -9 34 -6 -3 -14 -2 -18 5 -5 8 -10 8 -19 -1z"/>
<path d="M4847 463 c-4 -3 -15 -7 -25 -8 -19 -1 -22 -6 -22 -37 0 -17 3 -19 9
-10 6 10 10 8 14 -8 3 -12 10 -19 16 -16 5 4 13 0 18 -8 5 -8 13 -12 19 -8 14
9 25 102 12 102 -5 0 -7 -4 -3 -9 3 -5 1 -12 -5 -16 -5 -3 -10 1 -10 9 0 17
-12 21 -23 9z m8 -33 c7 -12 -2 -12 -30 0 -19 8 -19 9 2 9 12 1 25 -3 28 -9z"/>
<path d="M4986 443 l7 -28 -22 23 c-27 27 -38 22 -47 -22 -5 -27 -1 -39 16
-56 24 -24 41 -20 20 5 -8 10 -9 15 -1 15 6 0 11 -4 11 -8 0 -8 43 -32 55 -32
3 0 5 8 5 18 1 16 1 16 11 0 14 -26 27 -22 22 6 -3 13 0 27 6 30 18 11 13 26
-9 26 -11 0 -20 5 -20 12 0 6 -3 8 -7 5 -3 -4 -12 2 -20 13 -20 29 -34 25 -27
-7z m14 -49 c0 -2 -7 -4 -15 -4 -8 0 -15 4 -15 10 0 5 7 7 15 4 8 -4 15 -8 15
-10z"/>
<path d="M5260 445 c0 -8 5 -15 10 -15 6 0 10 7 10 15 0 8 -4 15 -10 15 -5 0
-10 -7 -10 -15z"/>
<path d="M5676 440 c-3 -8 -8 -39 -11 -67 -6 -47 -4 -53 12 -53 10 0 27 8 38
18 11 9 18 16 16 15 -1 -1 -9 4 -16 10 -22 21 -6 26 31 11 27 -12 34 -12 28
-2 -4 7 2 5 13 -5 12 -11 31 -17 45 -15 20 4 17 7 -22 26 -25 12 -55 22 -67
22 -13 0 -23 4 -23 8 0 5 10 14 23 20 21 10 21 11 -6 11 -16 1 -26 5 -22 10 3
6 -4 9 -15 8 -11 -1 -22 -8 -24 -17z"/>
<path d="M5352 438 c-16 -16 -15 -28 3 -28 8 0 15 9 15 20 0 23 -2 24 -18 8z"/>
<path d="M5401 424 c-10 -22 -9 -30 6 -46 10 -11 17 -23 16 -27 -1 -3 1 -8 3
-10 2 -2 4 3 4 12 0 9 0 19 0 22 0 3 -3 5 -6 4 -14 -2 -22 26 -12 44 5 10 8
21 5 23 -2 2 -9 -8 -16 -22z"/>
<path d="M4725 430 c-3 -4 2 -10 10 -14 8 -3 15 -11 15 -18 0 -9 -3 -8 -10 2
-5 8 -10 11 -10 6 0 -5 7 -18 17 -28 14 -16 15 -18 0 -18 -9 0 -18 -4 -21 -9
-3 -5 2 -8 12 -7 9 0 21 7 25 14 5 7 14 10 20 6 7 -3 4 1 -5 9 -10 8 -18 20
-18 27 0 10 3 10 15 0 13 -11 15 -9 12 11 -3 17 -11 24 -30 26 -15 1 -29 -2
-32 -7z"/>
<path d="M5125 418 l-20 -21 23 12 c12 6 22 16 22 21 0 13 -2 12 -25 -12z"/>
<path d="M5570 429 c0 -7 -8 -18 -17 -26 -16 -13 -16 -13 5 -3 19 9 32 40 17
40 -3 0 -5 -5 -5 -11z"/>
<path d="M5450 418 c0 -9 7 -19 16 -22 15 -6 15 -4 3 11 -7 10 -15 20 -16 22
-2 2 -3 -3 -3 -11z"/>
<path d="M8826 395 c-9 -26 -7 -32 5 -12 6 10 9 21 6 23 -2 3 -7 -2 -11 -11z"/>
<path d="M9481 394 c0 -11 3 -14 6 -6 3 7 2 16 -1 19 -3 4 -6 -2 -5 -13z"/>
<path d="M5113 393 c-16 -6 -17 -33 -2 -33 5 0 8 4 5 8 -3 5 1 9 9 9 8 0 11
-5 8 -10 -3 -6 -1 -7 5 -3 6 4 9 13 5 21 -5 16 -10 17 -30 8z"/>
<path d="M5224 385 c3 -8 0 -14 -6 -12 -7 1 -12 -4 -13 -11 0 -7 -6 -17 -14
-22 -12 -7 -12 -13 -3 -32 8 -14 10 -15 7 -4 -7 24 11 46 38 46 20 0 20 0 -2
-19 -13 -12 -18 -22 -11 -26 5 -3 10 -2 10 4 0 5 9 8 20 6 22 -4 61 26 41 33
-6 2 -11 10 -11 17 0 8 -8 12 -20 10 -13 -2 -20 2 -20 11 0 8 -5 14 -11 14 -6
0 -9 -7 -5 -15z"/>
<path d="M8906 337 c4 -51 2 -67 -8 -65 -7 2 -13 -3 -12 -9 4 -48 4 -48 20
-23 l15 25 -7 -25 c-5 -21 -4 -23 7 -12 16 15 20 64 5 55 -5 -4 -7 1 -3 10 3
10 2 17 -3 17 -6 0 -6 7 1 18 9 14 8 25 -4 48 -15 28 -15 27 -11 -39z"/>
<path d="M6897 379 c7 -7 15 -10 18 -7 3 3 -2 9 -12 12 -14 6 -15 5 -6 -5z"/>
<path d="M8855 380 c-3 -5 -1 -10 4 -10 6 0 11 5 11 10 0 6 -2 10 -4 10 -3 0
-8 -4 -11 -10z"/>
<path d="M8991 380 c0 -8 4 -24 9 -35 5 -13 9 -14 9 -5 0 8 -4 24 -9 35 -5 13
-9 14 -9 5z"/>
<path d="M5309 352 c7 -21 6 -32 -2 -36 -7 -3 15 -4 48 -3 53 2 60 0 58 -17
-1 -11 2 -15 8 -9 17 17 -1 43 -25 39 -14 -3 -23 1 -23 9 0 7 7 11 15 8 9 -4
13 0 11 12 -6 28 -28 29 -35 1 -3 -13 -12 -27 -19 -30 -9 -3 -12 0 -9 8 3 7
-4 20 -15 30 -20 18 -20 18 -12 -12z"/>
<path d="M4331 356 c-9 -10 -7 -16 6 -27 10 -7 15 -10 11 -5 -4 5 -3 17 3 27
11 22 -3 26 -20 5z"/>
<path d="M4366 354 c-9 -22 -8 -24 9 -18 8 4 15 12 15 20 0 19 -16 18 -24 -2z"/>
<path d="M5150 361 c-8 -6 -17 -8 -21 -5 -4 2 -10 0 -14 -6 -4 -6 -11 -7 -17
-4 -7 5 -8 2 -4 -5 5 -7 11 -10 14 -7 3 3 11 1 19 -5 10 -9 13 -8 13 2 0 11 2
11 10 -1 5 -8 10 -10 11 -5 0 6 2 18 4 28 4 20 4 19 -15 8z"/>
<path d="M6586 362 c-3 -5 -1 -24 3 -43 5 -19 12 -47 16 -63 4 -19 9 -26 16
-19 7 7 5 29 -5 68 -16 61 -21 71 -30 57z"/>
<path d="M4610 349 c0 -5 5 -7 10 -4 6 3 10 8 10 11 0 2 -4 4 -10 4 -5 0 -10
-5 -10 -11z"/>
<path d="M4701 334 c0 -11 3 -14 6 -6 3 7 2 16 -1 19 -3 4 -6 -2 -5 -13z"/>
<path d="M5445 339 c-4 -6 -4 -13 -1 -16 3 -4 6 -1 6 6 0 7 5 9 10 6 6 -3 10
-1 10 4 0 14 -17 14 -25 0z"/>
<path d="M5555 320 c-3 -5 1 -10 10 -10 9 0 13 5 10 10 -3 6 -8 10 -10 10 -2
0 -7 -4 -10 -10z"/>
<path d="M9068 297 c-3 -19 -2 -25 4 -19 6 6 8 18 6 28 -3 14 -5 12 -10 -9z"/>
<path d="M4880 280 c-8 -5 -12 -11 -9 -14 2 -3 11 -1 19 4 8 5 12 11 9 14 -2
3 -11 1 -19 -4z"/>
<path d="M8956 265 c-3 -10 -2 -21 3 -24 5 -3 11 -17 14 -31 4 -25 4 -25 6 3
1 28 21 39 21 12 0 -28 18 -15 22 16 5 29 3 31 -23 25 -17 -3 -29 -1 -31 6 -3
7 -8 4 -12 -7z"/>
<path d="M5237 253 c-10 -9 -9 -23 2 -23 5 0 11 7 15 15 5 15 -5 20 -17 8z"/>
<path d="M9050 253 c0 -6 -3 -20 -6 -30 -7 -17 -6 -17 12 -1 14 14 16 21 6 30
-8 8 -12 9 -12 1z"/>
<path d="M4320 234 c0 -8 5 -12 10 -9 6 4 8 11 5 16 -9 14 -15 11 -15 -7z"/>
<path d="M5211 234 c0 -11 3 -14 6 -6 3 7 2 16 -1 19 -3 4 -6 -2 -5 -13z"/>
<path d="M8207 233 c3 -7 9 -13 13 -13 5 0 11 6 13 13 3 7 6 5 6 -5 1 -11 6
-15 16 -12 27 11 16 29 -19 29 -23 0 -32 -4 -29 -12z"/>
<path d="M9134 241 c3 -5 -1 -11 -9 -15 -8 -3 -14 -13 -14 -23 1 -17 2 -17 6
0 5 18 33 24 33 6 0 -5 -5 -7 -11 -3 -7 4 -10 0 -7 -11 1 -10 11 -19 21 -21
15 -2 18 2 13 19 -3 12 -6 27 -6 33 0 7 -7 15 -16 18 -8 3 -13 2 -10 -3z"/>
<path d="M9171 224 c0 -11 3 -14 6 -6 3 7 2 16 -1 19 -3 4 -6 -2 -5 -13z"/>
<path d="M4278 223 c7 -3 16 -2 19 1 4 3 -2 6 -13 5 -11 0 -14 -3 -6 -6z"/>
<path d="M9226 213 c-6 -14 -5 -15 5 -6 7 7 10 15 7 18 -3 3 -9 -2 -12 -12z"/>
<path d="M9491 212 c-1 -13 -5 -21 -10 -18 -5 3 -11 -4 -14 -16 -8 -29 -4 -32
20 -11 14 13 17 24 12 43 -7 25 -7 25 -8 2z"/>
<path d="M5145 210 c-4 -6 -11 -8 -16 -5 -5 4 -9 1 -9 -4 0 -6 12 -11 26 -11
14 0 23 -4 20 -8 -3 -5 1 -9 9 -9 10 0 11 5 4 18 -12 24 -26 32 -34 19z"/>
<path d="M4304 195 c8 -8 18 -15 22 -15 3 0 1 7 -6 15 -7 8 -17 15 -22 15 -5
0 -3 -7 6 -15z"/>
<path d="M4374 198 c-4 -7 -3 -10 1 -5 5 4 16 0 26 -9 11 -10 19 -12 24 -5 3
6 4 12 1 12 -3 1 -9 2 -13 3 -5 1 -13 5 -20 9 -6 4 -15 2 -19 -5z"/>
<path d="M4446 202 c-2 -4 2 -15 9 -25 10 -14 14 -15 18 -5 4 9 11 7 26 -10
11 -13 22 -18 26 -12 3 5 1 10 -5 10 -6 0 -8 5 -4 12 4 6 3 8 -4 4 -6 -3 -13
-2 -17 4 -3 5 -15 10 -26 10 -11 0 -17 5 -14 10 3 6 4 10 1 10 -3 0 -7 -3 -10
-8z"/>
<path d="M5080 201 c0 -5 7 -11 15 -15 8 -3 15 -1 15 3 0 5 -7 11 -15 15 -8 3
-15 1 -15 -3z"/>
<path d="M8942 189 c2 -14 -2 -24 -10 -24 -15 0 -33 -26 -26 -37 3 -4 0 -8 -5
-8 -6 0 -11 -5 -11 -11 0 -21 30 13 31 35 0 11 3 15 6 8 4 -10 8 -10 19 -1 17
14 18 45 3 55 -7 4 -9 -2 -7 -17z"/>
<path d="M9081 201 c-8 -5 -9 -11 -3 -15 5 -3 12 1 16 9 6 17 6 18 -13 6z"/>
<path d="M9324 188 c-4 -13 -8 -25 -9 -28 0 -3 -10 -18 -22 -34 -19 -24 -23
-26 -24 -10 0 12 -4 8 -9 -10 -5 -16 -7 -33 -4 -38 3 -4 0 -8 -5 -8 -6 0 -11
5 -11 11 0 6 -6 9 -14 6 -8 -3 -16 1 -18 9 -5 23 -34 -4 -42 -38 -8 -34 11
-38 24 -6 8 21 9 20 9 -9 1 -23 6 -33 17 -33 16 0 58 45 60 65 4 26 17 55 25
55 5 0 7 -11 3 -24 -3 -15 -1 -25 9 -29 11 -4 14 2 12 23 -1 15 -5 32 -9 38
-3 6 -2 13 4 17 5 3 10 -2 11 -12 0 -14 2 -14 9 5 5 12 12 22 14 22 3 0 3 -6
0 -14 -4 -10 1 -14 15 -13 19 1 19 3 4 19 -14 16 -14 18 1 24 20 8 21 21 1 21
-8 0 -12 -3 -10 -7 5 -9 -32 -40 -39 -33 -3 3 -1 14 5 25 6 11 8 22 6 25 -3 2
-9 -6 -13 -19z"/>
<path d="M9576 201 c-4 -7 -5 -15 -2 -18 9 -9 19 4 14 18 -4 11 -6 11 -12 0z"/>
<path d="M5195 190 c3 -5 8 -10 11 -10 2 0 4 5 4 10 0 6 -5 10 -11 10 -5 0 -7
-4 -4 -10z"/>
<path d="M8862 174 c-1 -13 3 -24 9 -24 8 0 7 -5 -1 -15 -8 -10 -9 -15 -2 -15
14 0 34 35 25 43 -3 4 2 9 11 13 19 7 22 25 4 22 -7 -2 -19 -10 -26 -18 -8 -8
-11 -10 -8 -3 4 6 3 14 -2 17 -4 2 -9 -6 -10 -20z"/>
<path d="M4885 181 c-3 -5 -1 -12 5 -16 5 -3 10 1 10 9 0 18 -6 21 -15 7z"/>
<path d="M6611 174 c0 -11 3 -14 6 -6 3 7 2 16 -1 19 -3 4 -6 -2 -5 -13z"/>
<path d="M6656 174 c-8 -21 -8 -21 7 -27 10 -4 13 2 9 19 -5 28 -8 30 -16 8z"/>
<path d="M6687 183 c-4 -3 -7 -11 -7 -17 0 -6 5 -5 12 2 6 6 9 14 7 17 -3 3
-9 2 -12 -2z"/>
<path d="M6726 181 c-4 -5 -3 -17 1 -28 6 -15 4 -16 -9 -6 -16 14 -28 8 -28
-13 0 -8 6 -11 17 -7 11 5 14 3 8 -6 -6 -10 -3 -11 14 -2 17 10 19 16 11 31
-13 24 -13 30 1 30 5 0 8 -4 5 -8 -9 -16 24 -52 41 -45 9 4 21 -1 29 -12 8
-10 14 -15 14 -11 0 5 7 3 15 -4 13 -10 15 -9 15 10 0 15 -5 20 -14 17 -9 -4
-16 3 -21 20 -3 14 -8 23 -11 20 -3 -3 -21 1 -39 9 -40 17 -42 17 -49 5z"/>
<path d="M9010 190 c-1 -3 -4 -15 -5 -28 -1 -15 1 -20 7 -14 6 6 8 18 5 28 -3
11 -6 17 -7 14z"/>
<path d="M6565 170 c-3 -5 -1 -10 4 -10 6 0 11 5 11 10 0 6 -2 10 -4 10 -3 0
-8 -4 -11 -10z"/>
<path d="M9405 171 c-3 -5 -1 -12 5 -16 6 -4 8 -11 5 -16 -4 -5 -1 -9 4 -9 6
0 11 7 11 15 0 8 -5 15 -11 15 -5 0 -7 5 -4 10 3 6 4 10 1 10 -3 0 -7 -4 -11
-9z"/>
<path d="M9541 164 c0 -11 3 -14 6 -6 3 7 2 16 -1 19 -3 4 -6 -2 -5 -13z"/>
<path d="M4008 163 c7 -3 16 -2 19 1 4 3 -2 6 -13 5 -11 0 -14 -3 -6 -6z"/>
<path d="M4243 163 c-22 -8 -14 -30 12 -35 20 -4 23 -3 14 8 -6 8 -16 11 -23
7 -6 -4 -5 1 3 10 14 18 14 19 -6 10z"/>
<path d="M8976 163 c2 -3 -10 -16 -27 -30 -38 -32 -37 -45 4 -40 27 3 33 8 35
31 2 16 -1 32 -6 36 -5 4 -8 5 -6 3z"/>
<path d="M9087 155 c-4 -8 -13 -15 -22 -15 -8 0 -15 -7 -15 -15 0 -8 -5 -15
-11 -15 -6 0 -8 9 -3 22 6 20 5 21 -9 9 -9 -7 -14 -18 -10 -25 4 -6 8 -14 8
-18 0 -15 20 -9 30 9 6 10 11 20 13 23 2 2 7 -2 12 -10 7 -11 10 -7 16 13 7
30 0 47 -9 22z"/>
<path d="M9121 163 c-1 -6 -4 -20 -7 -30 -5 -17 -5 -17 6 0 6 10 9 23 6 30 -3
9 -5 9 -5 0z"/>
<path d="M9280 160 c0 -5 5 -10 10 -10 6 0 10 5 10 10 0 6 -4 10 -10 10 -5 0
-10 -4 -10 -10z"/>
<path d="M4320 148 c0 -9 5 -20 10 -23 13 -8 13 5 0 25 -8 13 -10 13 -10 -2z"/>
<path d="M4151 145 c0 -5 4 -17 9 -25 6 -10 10 -11 10 -2 0 6 7 12 15 12 8 0
15 5 15 10 0 7 -6 7 -19 0 -14 -7 -21 -6 -24 3 -3 6 -6 8 -6 2z"/>
<path d="M4350 140 c0 -5 5 -10 11 -10 5 0 7 5 4 10 -3 6 -8 10 -11 10 -2 0
-4 -4 -4 -10z"/>
<path d="M4632 128 c-14 -14 -16 -28 -3 -28 9 0 24 30 18 36 -2 2 -9 -2 -15
-8z"/>
<path d="M6331 114 c0 -11 3 -14 6 -6 3 7 2 16 -1 19 -3 4 -6 -2 -5 -13z"/>
<path d="M6573 114 c20 -24 47 -27 47 -6 0 9 -6 12 -16 8 -9 -4 -24 -1 -33 6
-13 10 -12 8 2 -8z"/>
<path d="M9130 115 c0 -9 -6 -12 -15 -9 -8 4 -15 1 -15 -6 0 -6 5 -8 10 -5 7
4 8 -8 4 -36 -6 -33 -4 -41 7 -37 9 3 14 22 15 56 1 29 0 52 -2 52 -2 0 -4 -7
-4 -15z"/>
<path d="M4198 108 c5 -5 16 -8 23 -6 8 3 3 7 -10 11 -17 4 -21 3 -13 -5z"/>
<path d="M4704 96 c0 -12 7 -23 14 -23 7 0 11 6 8 12 -2 7 0 17 5 22 5 5 1 9
-10 10 -14 1 -18 -5 -17 -21z"/>
<path d="M6390 110 c0 -6 7 -10 15 -10 8 0 15 2 15 4 0 2 -7 6 -15 10 -8 3
-15 1 -15 -4z"/>
<path d="M6360 89 c0 -11 4 -18 10 -14 5 3 7 12 3 20 -7 21 -13 19 -13 -6z"/>
<path d="M8992 90 c-6 -11 -12 -30 -12 -42 1 -22 1 -22 12 -3 11 19 22 65 16
65 -2 0 -9 -9 -16 -20z"/>
<path d="M9365 100 c-3 -5 -1 -10 4 -10 6 0 11 5 11 10 0 6 -2 10 -4 10 -3 0
-8 -4 -11 -10z"/>
<path d="M4746 87 c3 -10 9 -15 12 -12 3 3 0 11 -7 18 -10 9 -11 8 -5 -6z"/>
<path d="M3233 75 c0 -8 4 -15 9 -15 4 0 8 4 8 9 0 6 -4 12 -8 15 -5 3 -9 -1
-9 -9z"/>
<path d="M4665 80 c-3 -5 1 -10 10 -10 9 0 13 5 10 10 -3 6 -8 10 -10 10 -2 0
-7 -4 -10 -10z"/>
<path d="M9407 84 c-3 -3 -3 -12 0 -20 3 -9 -2 -14 -13 -14 -16 0 -16 -2 -4
-10 9 -6 17 -5 22 3 6 9 10 8 17 -3 7 -10 6 -17 -2 -23 -8 -6 -8 -7 3 -4 18 5
14 37 -6 53 -7 6 -11 14 -7 17 3 4 4 7 1 7 -2 0 -7 -3 -11 -6z"/>
<path d="M3136 63 c-6 -14 -5 -15 5 -6 7 7 10 15 7 18 -3 3 -9 -2 -12 -12z"/>
<path d="M3311 67 c-18 -18 -13 -27 14 -27 15 0 25 6 25 14 0 19 -25 27 -39
13z"/>
<path d="M4013 64 c-3 -8 -1 -20 6 -27 8 -8 11 -4 11 16 0 30 -7 35 -17 11z"/>
<path d="M4070 68 c0 -9 5 -20 10 -23 13 -8 13 5 0 25 -8 13 -10 13 -10 -2z"/>
<path d="M9342 69 c5 -14 21 -14 26 0 2 6 -4 11 -13 11 -9 0 -15 -5 -13 -11z"/>
<path d="M3952 58 c2 -7 -3 -12 -11 -10 -12 3 -12 0 -1 -13 8 -10 21 -13 34
-9 21 6 21 6 1 -10 -20 -17 -20 -17 0 -14 11 2 21 12 23 22 3 15 0 18 -18 13
-16 -4 -20 -2 -16 8 3 8 1 17 -5 20 -5 4 -8 1 -7 -7z"/>
<path d="M4041 54 c0 -11 3 -14 6 -6 3 7 2 16 -1 19 -3 4 -6 -2 -5 -13z"/>
<path d="M3160 44 c0 -8 5 -12 10 -9 6 3 10 10 10 16 0 5 -4 9 -10 9 -5 0 -10
-7 -10 -16z"/>
<path d="M3265 50 c-3 -5 -1 -10 4 -10 6 0 11 5 11 10 0 6 -2 10 -4 10 -3 0
-8 -4 -11 -10z"/>
<path d="M9035 51 c-3 -5 -1 -12 5 -16 5 -3 10 1 10 9 0 18 -6 21 -15 7z"/>
<path d="M4590 41 c0 -7 -4 -9 -10 -6 -5 3 -10 -3 -10 -14 0 -19 6 -21 55 -20
57 2 70 14 39 40 -14 11 -18 10 -31 -6 -14 -20 -14 -20 -29 -1 -8 11 -14 14
-14 7z"/>
<path d="M9091 34 c0 -11 3 -14 6 -6 3 7 2 16 -1 19 -3 4 -6 -2 -5 -13z"/>
<path d="M9297 33 c7 -17 23 -17 23 0 0 8 -6 14 -14 14 -8 0 -12 -6 -9 -14z"/>
<path d="M3097 20 c3 -11 9 -20 15 -20 5 0 4 9 -2 20 -6 11 -12 20 -14 20 -2
0 -2 -9 1 -20z"/>
<path d="M3871 13 c-13 -11 -9 -12 31 -11 37 1 45 4 37 14 -13 15 -45 14 -68
-3z"/>
<path d="M4041 14 c0 -11 3 -14 6 -6 3 7 2 16 -1 19 -3 4 -6 -2 -5 -13z"/>
<path d="M4072 14 c-11 -12 -8 -14 15 -14 15 0 24 4 18 8 -5 4 -12 10 -15 14
-3 3 -11 0 -18 -8z"/>
<path d="M4851 14 c0 -11 3 -14 6 -6 3 7 2 16 -1 19 -3 4 -6 -2 -5 -13z"/>
<path d="M3060 10 c-12 -8 -10 -10 8 -10 13 0 20 4 17 10 -7 12 -6 12 -25 0z"/>
<path d="M3230 10 c-9 -6 -10 -10 -3 -10 6 0 15 5 18 10 8 12 4 12 -15 0z"/>
<path d="M4010 10 c0 -5 5 -10 11 -10 5 0 7 5 4 10 -3 6 -8 10 -11 10 -2 0 -4
-4 -4 -10z"/>
</g>
</svg>
