<svg width="25" height="29" viewBox="0 0 25 29" fill="none" xmlns="http://www.w3.org/2000/svg">
<path d="M22.3332 12.9533L6.20822 3.60079C5.99068 3.48388 5.7514 3.43194 5.51214 3.44969C5.27288 3.46745 5.04125 3.55434 4.83833 3.70246C4.63541 3.85057 4.46765 4.05521 4.35032 4.29774C4.23299 4.54027 4.16982 4.81298 4.16655 5.09107V23.788C4.16452 24.0735 4.226 24.3547 4.34506 24.6045C4.46411 24.8544 4.63671 25.0643 4.84618 25.2142C5.05564 25.364 5.29488 25.4486 5.54078 25.4599C5.78668 25.4711 6.03092 25.4086 6.24989 25.2783L22.3332 15.9258C22.5715 15.7871 22.7718 15.5742 22.9117 15.311C23.0517 15.0479 23.1258 14.7447 23.1258 14.4355C23.1258 14.1263 23.0517 13.8231 22.9117 13.56C22.7718 13.2968 22.5715 13.084 22.3332 12.9452V12.9533Z" fill="white"/>
</svg>
